/* XPM */
static char *numptyphysics[] = {
/* columns rows colors chars-per-pixel */
"32 32 99 2 ",
"   c #3F9C3E",
".  c #499E35",
"X  c #409D40",
"o  c #469C43",
"O  c #459E43",
"+  c #479C45",
"@  c #459F44",
"#  c #46A045",
"$  c #47A147",
"%  c #48A148",
"&  c #49A248",
"*  c #4AA249",
"=  c #4DA34C",
"-  c #5CA747",
";  c #50A34E",
":  c #54A351",
">  c #52A551",
",  c #53A650",
"<  c #51A653",
"1  c #53A753",
"2  c #55A452",
"3  c #55A553",
"4  c #57A554",
"5  c #56A755",
"6  c #56A856",
"7  c #5CA954",
"8  c #5FA65B",
"9  c #59A858",
"0  c #59A959",
"q  c #5BAA5A",
"w  c #5FAC5F",
"e  c #67AA44",
"r  c #63AD62",
"t  c #62AE62",
"y  c #65AC62",
"u  c #64AD62",
"i  c #64AD63",
"p  c #65AE63",
"a  c #67AC64",
"s  c #67AD65",
"d  c #65AE64",
"f  c #64AF64",
"g  c #6AAD67",
"h  c #6BAE68",
"j  c #6EAF6A",
"k  c #66B066",
"l  c #67B067",
"z  c #68B067",
"x  c #6AB16A",
"c  c #6FB16C",
"v  c #6EB16D",
"b  c #6CB26C",
"n  c #6DB26C",
"m  c #6DB36D",
"M  c #6FB26E",
"N  c #70B26F",
"B  c #75B271",
"V  c #74B371",
"C  c #76B073",
"Z  c #75B473",
"A  c #75B673",
"S  c #76B274",
"D  c #74B674",
"F  c #76B674",
"G  c #77B675",
"H  c #79B575",
"J  c #78B675",
"K  c #79B776",
"L  c #7BB97A",
"P  c #7FBA7C",
"I  c #7FBB7D",
"U  c #7FBC7F",
"Y  c #F0D62C",
"T  c #F8D72D",
"R  c #F9D82D",
"E  c #F8DB3F",
"W  c #80B448",
"Q  c #85BD7C",
"!  c #89BD7F",
"~  c #A8C044",
"^  c #B1C448",
"/  c #EFDA4D",
"(  c #F4D94A",
")  c #F5DB50",
"_  c #F4DB56",
"`  c #F6DD57",
"'  c #F4DC5B",
"]  c #F6DF5E",
"[  c #CFD26A",
"{  c #F2DC64",
"}  c #85B480",
"|  c #83BC80",
" . c #85BC82",
".. c #89BE82",
"X. c #88BF86",
"o. c #87C087",
"O. c #91C38F",
"+. c #ABC7A5",
"@. c None",
/* pixels */
"@.@.@.@.@.@.@.@.@.@.@.@.@.@.@.@.@.@.@.@.@.@.@.@.@.@.@.@.@.@.@.@.",
"@.@.@.@.@.@.@.@.@.@.@.@.@.@.@.@.@.@.@.@.@.@.@.@.@.@.@.@.@.@.@.@.",
"@.@.@.@.@.@.@.@.@.@.@.@.@.@.@.@.@.1 U @.n @.@.@.l @.@.@.@.@.@.@.",
"@.@.@.@.@.@.@.@.@.@.@.@.@.@.@.@.@.@.o.@.@.@.@.@.@.@.@.@.@.@.@.@.",
"@.@.@.@.@.@.@.@.@.@.@.@.@.@.@.@.@.@.@.@.q @.@.@.@.@.@.@.@.@.@.@.",
"@.@.@.@.@.@.@.@.@.@.@.@.@.@.@.@.@.@.@.@.f t @.@.x @.@.@.@.@.@.@.",
"@.@.@.@.@.@.@.@.@.@.@.@.@.@.@.@.@.@.@.@.@.@.@.@.@.L @.@.@.@.@.@.",
"@.@.@.@.@.@.@.@.@.@.@.@.@.@.@.@.@.@.@.@.@.@.@.@.@.@.= @.@.@.@.@.",
"@.@.@.@.@.@.@.T @.@.@.@.@.@.@.@.@.@.@.@.@.@.@.@.@.@.I @.@.@.@.@.",
"@.@.@.@.@.@.@.R @.@.@.@.@.@.@.@.@.@.@.@.@.@.@.@.@.@.@.@.@.@.@.@.",
"@.@.@.@.@.@.@.' @.@.@.@.@.@.@.@.@.@.@.@.@.@.@.@.@.@.@.@.@.@.@.@.",
"@.@.@.@.@.@.@.@.@.@.@.@.@.@.@.@.@.@.@.@.@.@.@.@.@.@.@.@.@.@.@.@.",
"@.@.@.@.@._ @.@.@.@.@.@.@.@.@.@.@.@.@.D @.@.@.@.@.@.@.@.@.@.@.@.",
"@.@.@.@.{ ) @.@.@.] @.@.E @.@.@.@.@.@.k * @.@.@.@.@.@.@.@.@.@.@.",
"@.( @.@.@.@.@.@.@.@.@.@.@.@.@.@.@.@.@.% X @.@.@.@.@.@.@.@.@.@.@.",
"@.@.@.@.@.@.@.@.< @.@.@.@.@.@.@.@.@.m z @ Z @.@.@.@.@.@.@.@.@.@.",
"@.@.@.@.@.@.@.! 7 @.@.@.@.@.@.@.@.w @.@.@.@.@.@.@.@.@.@.@.@.@.@.",
"@.@.@.@.@.@.@.e - Q [ @.@.@.@.@.b @.@.@.@.@.@.@.@.@.@.@.@.@.@.@.",
"@.@.@.@.@.@.@.@.... ^ ~ , 0 i 6 @.@.@.@.@.@.A @.@.@.@.@.@.@.@.@.",
"@.@.@.@.` @.@.@.@.W Y / @.@.$ & @.@.@.@.@.@.F @.@.@.@.@.@.@.@.@.",
"@.@.@.@.@.@.@.@.@.@.@.@.@.@.@.@.@.@.@.@.@.@.h @.@.@.@.@.@.@.@.@.",
"@.@.@.@.@.@.@.@.@.@.@.@.@.@.@.@.@.@.@.@.@.@.2 V @.@.@.@.@.@.@.@.",
"@.@.@.@.@.@.@.@.@.@.@.@.@.v @.@.@.@.@.@.@.@.8 y @.@.@.@.@.@.@.@.",
"@.@.@.@.@.@.@.@.@.@.@.@.@.@.@.@.@.@.@.@.@.@.g J @.@.@.@.@.@.@.@.",
"@.@.@.@.@.@.@.@.@.@.@.@.@.@.@.@.@.@.@.@.@.@.P | @.@.@.@.@.@.@.@.",
"@.@.@.@.@.@.@.@.@.@.@.@.r @.@.@.@.@.@.@.@.B @. .K @.@.@.@.@.@.@.",
"@.@.@.@.@.@.@.@.@.@.@.@.# M @.@.@.} @.@.@.j @.O 3 c @.@.@.@.@.@.",
"@.@.@.@.@.@.@.@.@.@.@.@.d 9 s S a + o ; G X.O   u @.@.@.@.@.@.@.",
"@.@.@.@.@.@.@.@.@.@.@.@.@.N @.@.@.C : > O.p @.@.5 @.@.@.@.@.@.@.",
"@.@.@.@.@.@.@.@.@.@.@.@.@.@.@.@.@.@.+.4 @.@.@.@.@.@.@.@.@.@.@.@.",
"@.@.@.@.@.@.@.@.@.@.@.@.@.@.@.@.@.@.@.H @.@.@.@.@.@.@.@.@.@.@.@.",
"@.@.@.@.@.@.@.@.@.@.@.@.@.@.@.@.@.@.@.@.@.@.@.@.@.@.@.@.@.@.@.@."
};
