/* XPM */
static char *openstereogram[] = {
/* columns rows colors chars-per-pixel */
"32 29 166 2",
"   c #0E468E",
".  c #1A4C8B",
"X  c #14518B",
"o  c #1E548C",
"O  c #1C598E",
"+  c #094F97",
"@  c #0D4D99",
"#  c #0F5393",
"$  c #0D549D",
"%  c #125794",
"&  c #1B5591",
"*  c #155B95",
"=  c #1C5C94",
"-  c #14569A",
";  c #1A5598",
":  c #125C9B",
">  c #1B5D9A",
",  c #255687",
"<  c #21558C",
"1  c #245F8D",
"2  c #315B86",
"3  c #245D91",
"4  c #215F9F",
"5  c #0F639E",
"6  c #146595",
"7  c #1C6397",
"8  c #15649B",
"9  c #1C639D",
"0  c #1D6C9D",
"q  c #28658F",
"w  c #33648D",
"e  c #376C8D",
"r  c #236394",
"t  c #2E6395",
"y  c #246F95",
"u  c #23669B",
"i  c #2A649D",
"p  c #236A9D",
"a  c #2B6C9D",
"s  c #326695",
"d  c #326C95",
"f  c #326B9A",
"g  c #207097",
"h  c #2D7096",
"j  c #2B729F",
"k  c #307297",
"l  c #387094",
"z  c #33749C",
"x  c #3B709A",
"c  c #36799D",
"v  c #3F799C",
"b  c #0D55A2",
"n  c #0F5FA2",
"m  c #135CA2",
"M  c #0E63A4",
"N  c #0F67AD",
"B  c #0F6BAD",
"V  c #1463A3",
"C  c #1B64A2",
"Z  c #146CA5",
"A  c #1C6BA4",
"S  c #1366A8",
"D  c #1865AA",
"F  c #146CAA",
"G  c #1B6DAA",
"H  c #1D72A5",
"J  c #1E7AA6",
"K  c #1472AD",
"L  c #1C74AC",
"P  c #1B7AAD",
"I  c #136EB1",
"U  c #0E72B1",
"Y  c #1574B2",
"T  c #1B75B2",
"R  c #1679B2",
"E  c #1C7BB3",
"W  c #147EB9",
"Q  c #1B7DBA",
"!  c #2164A2",
"~  c #236BA3",
"^  c #2C6DA3",
"/  c #226DAA",
"(  c #3A6FA0",
")  c #2473A5",
"_  c #2B73A4",
"`  c #2C79A6",
"'  c #2374AC",
"]  c #2B74AB",
"[  c #237AAC",
"{  c #2B7BAB",
"}  c #3474A4",
"|  c #3A74A1",
" . c #347BA5",
".. c #3B7BA5",
"X. c #3174A9",
"o. c #327BAC",
"O. c #3A7DAB",
"+. c #2376B2",
"@. c #2C77B0",
"#. c #247DB3",
"$. c #2B7DB2",
"%. c #307DB1",
"&. c #406D9E",
"*. c #41759C",
"=. c #417C9E",
"-. c #4277A1",
";. c #427AA3",
":. c #1E81AF",
">. c #1F81B2",
",. c #1D8CB6",
"<. c #1681BA",
"1. c #1C84BB",
"2. c #198ABC",
"3. c #2481AB",
"4. c #2C82AE",
"5. c #2B8AAF",
"6. c #3A82A7",
"7. c #3482AC",
"8. c #3B83AD",
"9. c #3788AF",
"0. c #2482B4",
"q. c #2C83B4",
"w. c #218BB7",
"e. c #2D8AB7",
"r. c #2384BA",
"t. c #2A87B9",
"y. c #248BBD",
"u. c #2D8CBB",
"i. c #3284B3",
"p. c #3A83B1",
"a. c #338BB4",
"s. c #3B8AB2",
"d. c #3086B8",
"f. c #338BBB",
"g. c #3D8EBB",
"h. c #2E90BF",
"j. c #3E92B3",
"k. c #3591BE",
"l. c #3B91BA",
"z. c #4384AA",
"x. c #4886A9",
"c. c #428AAE",
"v. c #4A8BAB",
"b. c #5688A7",
"n. c #598BA5",
"m. c #568FAE",
"M. c #4382B1",
"N. c #418CB3",
"B. c #4F89B2",
"V. c #4591B2",
"C. c #4D93B5",
"Z. c #4593BA",
"A. c #4A95BC",
"S. c #459ABF",
"D. c #5594B0",
"F. c #5992B5",
"G. c #5F9EB7",
"H. c #2B8DC1",
"J. c #2B91C2",
"K. c #2E9DC7",
"L. c #2997CC",
"P. c #259CC9",
"I. c #359CC3",
"U. c #399AC4",
"Y. c #319ECA",
"T. c #3B9BC8",
/* pixels */
"s.H H [ L C _ _  .+.F ^ e T  .f._ x ;.6.u.] ~ u.8.i.[ ~ [ 8 _ f ",
"P ' c o.Q ,.' G ^ R B 9 k.u.V #.u { c { C A N.& i.o.^ { S ' D / ",
"/ [ { [ +.C a ~ o K G C 8 R A m D m J i.o.[ *.p N X.a.' A ~ g.~ ",
"{ E 8 0.Y i f.r.C Y L Y p b.x.t.>. .7 Y J.: 0.l z T q S.S q.K.i ",
"u.l s.' M ] ` ] L B.C L #.u ' t.<.7.C T i.i Y._ c.4.y.V F E X.8.",
"d = P > y.0.' 4.L f +.Y +.m F Z * Y.+.] $.i O.} ^ / F Q H 4.3._ ",
"c.l ;.i.: #.f.A : { [ K L p = E ^ f.I.4 @ L P d.d.V #.....T.6 *.",
"~ f.a $.r.P #.^ a ' H Q 0.P 2.E t 2 ) V #.A %.' 0._ Q E ) g.G ~ ",
") C g.C P d u.R | O.Z D 8 M ~ # A.;.F D R U.t { Z J.{ R ' p.% I.",
"7 Y f.&.r  .q.Z T % V ' z.i Z.o.] * ` W u _ L 8 M k.7 6 c.E ' C ",
"v.} q.) s.r 7.[ C I r.! A 0 H ) f.$.a _ j A L O.h h.[ 0 J G T a.",
"_ ~ _ ) 8.0 _ ' $.{ ..> S J.Z J Z ! a _ [ V.7 | m.p 8 q.Z K G { ",
"q.G r.C u Q Q ; ' O.> { #.7 K & p.% #.2.w D.@.t./ _ P 3.K . q.0 ",
"0.#.p A >.G #.E +.A Z.^ [ : / g.1 i.u ` a 8 q.L E ) q.Z h.[ o j ",
"+.S a [ w.* H F 0.6.C.0 J.$.' q.A #.t 8 1.] - ' V r.V.A 7 e.4.G.",
"t.[ ) O 4.y.H E m i _ 9.J { $.X 8 G A.X.H p _ 7.= % e.7.{ X.% h ",
"1.~ A [ : ` l.[ $ { j.r 2.S F e.p Q 6 z r H [ e.o.* E q.$.` q.J ",
"0.t.V L.- 7 a p.7 A q.p T 0 ~ #.] L K P :.<.G ' q.F H ' l.& a.q.",
"C q.u.R ) 9 { j a i.Z K f.[ : L C ~ 8 ]  .Z C P.u.S { i.O ~ f.P ",
"S ; O.] ..N.E +.#.L D T W <.~ J.[ u r.) q.r.V _ y.I L #.Y._ n ' ",
"f.X.#._ 3 f C i f 4.$.V I , %.F H k.r  ._ G 7.$.F 9 ~ 3 y l._ Y ",
"E +.' #.T.F _ Z.S $.a.S %.x./ F # K d.' p 1.r.Y t.O.u u.) [ z._ ",
"%.z x.8.{ q.L #.{ V > 7 #.% T ' C ^ f Q u.0.H ' #.q.@.+.% E % 6.",
"} l.D.5 q.8.* V & { t.H ' { 8 i.9.8 W R F P e.O.L #.) M Z L H P ",
"Y m i.7.H 8.s M.;.o.L _ T 8.~ j H.@.  d.u.5 P { [ h.a X.k.8 q.8.",
"u.G ~  .` i.! < O.Y ) ) d.f b.w.Y ..A #.F.' L A  .8.4 u X.L [ r ",
"w +.H / T S b ) q.K ) ~ u W C : - o.{ @ i G ' > 7.L G 4.| z ` D ",
"o.1._ N.%.#.%.s r +.L F L Q D T / f.y.B 4.7.~ ~ y.0.' t ;.& E o.",
"a I G r p.a u n.u r.a.| 4.7.g.X.X.G 9 L 8. .F b ] a A u.) ] _ c "
};
