/* XPM */
static char *dummy[]={
"32 32 694 2",
"h5 c None",
"iG c #000000",
"ip c #000000",
"iF c #000000",
"i. c #020303",
"iS c #000000",
"iq c #000000",
"iT c #010101",
"iH c #000000",
"ir c #000000",
"is c #000000",
"it c #000000",
"iu c #000000",
"iI c #020203",
"hV c #000000",
"iU c #070809",
"if c #1b1b1c",
"i# c #101111",
"hW c #010101",
"hX c #020202",
"hY c #030303",
"hZ c #040404",
"h0 c #050505",
"h1 c #060606",
"Qt c #000000",
".x c #090909",
"iV c #131517",
"h6 c #070707",
"iW c #232628",
"h2 c #0a0a0a",
"iv c #383a3c",
".# c #020202",
".a c #030303",
".b c #040404",
".c c #060606",
".d c #070707",
".e c #080808",
".f c #090909",
".g c #0a0a0a",
".h c #0b0b0b",
"h8 c #0c0c0c",
".i c #0d0d0d",
".j c #0e0e0e",
".k c #0f0f0f",
".w c #141414",
".l c #151515",
".v c #161616",
".u c #171717",
".t c #181818",
".s c #191919",
".r c #1a1a1a",
".q c #1b1b1b",
".p c #1c1c1c",
".o c #1d1d1d",
".n c #1e1e1e",
".m c #1f1f1f",
"iJ c #323538",
"iX c #313538",
"h7 c #0a0a0a",
"h4 c #0b0b0b",
"iY c #3c3f43",
"iZ c #414548",
".y c #010101",
"hF c #030303",
"hc c #040404",
"g3 c #050505",
"gN c #060606",
"gq c #070707",
"fZ c #080808",
"fv c #090909",
"e2 c #0a0a0a",
"ey c #0b0b0b",
"d6 c #0c0c0c",
"dC c #0d0d0d",
"c9 c #0e0e0e",
"cE c #0f0f0f",
"cd c #101010",
"bO c #111111",
"bk c #121212",
"aS c #131313",
"#X c #141414",
".1 c #151515",
"h9 c #0f0f0f",
"ia c #171717",
"iK c #7d8184",
"ib c #212121",
"ig c #a4a7aa",
"iL c #b4b7ba",
"ic c #222222",
"ie c #212121",
"iM c #d4d7d8",
"io c #6b6f72",
"ih c #6b6f73",
"iw c #d8dbdd",
"h3 c #141414",
"iO c #d3d4d5",
"iR c #dadbdc",
"iN c #dddedf",
"ha c #002958",
"gt c #003573",
"f2 c #003673",
"gQ c #003674",
"f4 c #00376b",
"gu c #003775",
"fx c #003874",
"gR c #003876",
"g5 c #003877",
"g1 c #003977",
"g0 c #003978",
"h# c #003979",
"e5 c #003a76",
"gv c #003a77",
"gK c #003a78",
"g6 c #003a79",
"gL c #003a7a",
"gZ c #003b7a",
"f5 c #003c73",
"eB c #003c78",
"gw c #003c7a",
"g7 c #003c7b",
"gn c #003d7a",
"h. c #003d7b",
"gY c #003e7b",
"gm c #003e7c",
"d8 c #003f7a",
"gU c #003f7b",
"gx c #003f7c",
"gS c #003f7d",
"g9 c #003f7e",
"gT c #00407d",
"g8 c #00407e",
"gV c #00417d",
"gl c #00417e",
"f6 c #00427a",
"gC c #00427d",
"gk c #00427e",
"gy c #00427f",
"f7 c #00437c",
"gz c #00437f",
"gJ c #004380",
"gB c #00447e",
"gX c #004481",
"gj c #004580",
"gW c #004581",
"gi c #004681",
"gI c #004682",
"gA c #004781",
"gH c #004783",
"gM c #012a58",
"gP c #012b58",
"f3 c #013469",
"dF c #01417a",
"fU c #014681",
"gE c #014782",
"gh c #014881",
"gD c #014882",
"gF c #014883",
"gG c #014984",
"gs c #022b58",
"go c #022c5a",
"fV c #024580",
"fW c #024783",
"fT c #024882",
"gg c #024981",
"f1 c #032d5a",
"fX c #03325e",
"f8 c #034376",
"ge c #03487d",
"gf c #034980",
"fw c #042f5b",
"hG c #050505",
"e4 c #05325e",
"fy c #05396d",
"gd c #054478",
"da c #054479",
"eA c #063560",
".z c #070707",
"gc c #074070",
"hH c #080808",
"ft c #083863",
"fS c #084173",
"g4 c #09090a",
"gO c #090a0a",
"gr c #090a0b",
"hd c #091625",
"d7 c #093862",
"hI c #0a0a0a",
"f0 c #0a0a0b",
"e3 c #0a0b0b",
"ez c #0b0b0b",
"dD c #0b0b0c",
"d. c #0b0c0c",
"cF c #0b0c0d",
"hD c #0b1826",
"he c #0b1d30",
"dE c #0b3a65",
".A c #0c0c0c",
"bP c #0c0c0d",
"bl c #0c0d0d",
"#Y c #0c0d0e",
"hC c #0c1e32",
"fp c #0c4473",
"hE c #0d0c0c",
"hJ c #0d0d0d",
".2 c #0d0d0e",
"hf c #0d1f32",
"fq c #0d4d83",
"hb c #0e0e0d",
".B c #0e0e0e",
"hB c #0e2134",
"d# c #0e3e67",
"fr c #0e4f87",
"hg c #0f2134",
"gb c #0f3e66",
"fs c #0f528a",
"g2 c #10100f",
"hK c #101010",
"hA c #102236",
"hh c #102336",
".C c #111111",
"hz c #112538",
"e0 c #113f69",
"cG c #11416a",
"cH c #114a79",
"hL c #121212",
"hi c #122639",
"gp c #131312",
"hy c #13263a",
".D c #141414",
"hj c #14273b",
"ce c #14446c",
"fY c #151514",
"hM c #151515",
"hx c #15293c",
"e6 c #154471",
"#0 c #155e97",
".E c #161615",
"hk c #16293c",
"fu c #171716",
"hN c #171717",
"hw c #172b3e",
"hl c #172c3e",
"bQ c #17476e",
"#v c #176098",
"hU c #181818",
"hv c #182d40",
"aq c #185d94",
"e1 c #191918",
".F c #191919",
"hm c #192e41",
"hO c #1a1a1a",
"hn c #1a2f41",
"hu c #1a2f42",
"ew c #1a476e",
"bm c #1a486f",
"ex c #1b1b1a",
".G c #1b1b1b",
"ht c #1b3044",
".4 c #1b415e",
"hP c #1c1c1c",
"ho c #1c3043",
"d5 c #1d1d1c",
".H c #1d1d1d",
"hs c #1d3145",
"hp c #1d3245",
"hQ c #1e1e1e",
"hq c #1e3245",
"hr c #1e3346",
"ga c #1e4361",
"aT c #1e4b70",
"#1 c #1e689f",
"dB c #1f1e1e",
"hT c #1f1f1f",
".3 c #1f394e",
"eY c #1f5a90",
"eZ c #1f5d92",
"#w c #1f69a0",
".I c #202020",
"fo c #20384f",
".5 c #204763",
"ap c #204f77",
"c8 c #212120",
"hR c #212121",
".J c #222222",
"id c #222323",
"#Z c #225279",
"eX c #225583",
"cD c #232222",
"hS c #232323",
".K c #242423",
"ij c #242425",
"d4 c #244f74",
"#u c #24537b",
".L c #252525",
"ik c #252627",
".6 c #254c68",
"#2 c #2570a6",
"bN c #262625",
"in c #262727",
"ar c #26699a",
"#x c #2772a7",
"bj c #282827",
"il c #28292a",
"fR c #284053",
"im c #29292a",
"cf c #29587f",
"aR c #2a2a29",
".7 c #2a516c",
".0 c #2b2b2b",
"ii c #2c2e2f",
"#W c #2d2c2c",
"#t c #2d2d2d",
"#3 c #2d78ac",
".M c #2e2e2e",
"dA c #2e577a",
"et c #2e6596",
"eC c #2f5579",
".8 c #2f5771",
"eu c #2f6799",
"#y c #2f7aad",
".Z c #303030",
"ev c #30699b",
"g# c #314a5a",
".Y c #323232",
"#s c #324657",
"fE c #324f69",
".X c #343434",
".9 c #345b75",
"#4 c #3580b2",
".W c #363636",
"as c #3674a0",
"#z c #3781b3",
".V c #383838",
"c7 c #385e80",
"#. c #385f79",
"## c #3a647c",
".U c #3b3b3b",
"fD c #3b536a",
"#5 c #3c87b8",
".T c #3d3d3d",
"fQ c #3d4548",
"#a c #3e677f",
"#A c #3e88b9",
".S c #3f3e3e",
"d1 c #3f74a2",
".R c #404040",
"#b c #406982",
"d2 c #4074a2",
"cC c #416686",
"d3 c #4176a4",
"#6 c #418dbc",
".Q c #424242",
"#c c #426c84",
".P c #434342",
"#B c #438ebe",
".O c #444444",
".N c #454545",
"fC c #45586c",
"#7 c #4591c0",
"d0 c #46637f",
"at c #467fa7",
"#C c #4793c2",
"g. c #48585b",
"bR c #486d8b",
"#8 c #4996c4",
"cc c #4a6d8b",
"es c #4b5c6f",
"d9 c #4b6a85",
"#D c #4b98c6",
"dw c #4c7496",
"#9 c #4c99c7",
"iD c #4e5255",
"eW c #4e5968",
"a. c #4e9ac9",
"#E c #4f9bc9",
"fB c #505e6f",
"f9 c #505f60",
"dx c #5081ac",
"#r c #516576",
"dy c #5181ab",
"#F c #519ecc",
"iC c #525659",
"dz c #5283ac",
"fP c #535043",
"#q c #536778",
"bM c #537490",
"#d c #54778b",
"#p c #556a7a",
"au c #578aad",
"#o c #586e7e",
"#n c #5a7080",
"c2 c #5b6978",
"bi c #5b7a94",
"iB c #5c6063",
"fA c #5c6675",
"#m c #5c7282",
"c3 c #5d8aaf",
"#l c #5e7585",
"a# c #5fa4cd",
"cx c #61778b",
"#k c #617888",
"c4 c #618fb5",
"c5 c #628eb4",
"#j c #637b89",
"aQ c #638098",
"dv c #646d78",
"c6 c #648fb5",
"av c #6492b1",
"#i c #657d8c",
"#h c #667f8f",
"dG c #677d91",
"bn c #678197",
"#g c #688291",
"#e c #688392",
"fz c #697686",
"ao c #69859c",
"fO c #6a5d42",
"#f c #6a8493",
"eV c #6b6e75",
"bG c #6e7987",
"aw c #6e97b3",
"b9 c #6f8ca5",
"#V c #708a9f",
"iE c #717579",
"cz c #729bbe",
"cy c #729dc0",
"iA c #73777a",
"cA c #739bbd",
"cB c #759cbe",
"ax c #779ab3",
"#G c #77b4d8",
"b8 c #78808a",
"e7 c #798291",
"bc c #798898",
"cm c #7d7d7f",
"fF c #7e7862",
"ay c #7e9cb1",
"dZ c #80858d",
"eD c #818996",
"aU c #8194a5",
"db c #82919f",
"fN c #836b42",
"c# c #83a8c6",
"c. c #83aac9",
"ca c #84a7c6",
"az c #869eb0",
"cb c #86a8c6",
"dp c #887463",
"bH c #88a8c2",
"aK c #8ca0b1",
"aJ c #8f96a0",
"cw c #91969d",
"aA c #91a3b1",
"e. c #9298a3",
"iz c #93979b",
"bJ c #93b3ce",
"cI c #949eaa",
"bI c #94b6d1",
"ah c #95a4b2",
"bK c #95b3ce",
"ag c #97a3af",
"bL c #97b4ce",
"cg c #9ba4ae",
"fM c #9c7c46",
"ed c #9c8f75",
"aB c #9ca8b4",
"cR c #9f917e",
"bd c #9fbed6",
"cO c #a1988b",
"bS c #a1a8b2",
"fn c #a26319",
"bf c #a2bed6",
"eU c #a35e2a",
"ad c #a3bbca",
"be c #a3c1d8",
"fb c #a4a4a7",
"bg c #a4bfd5",
"er c #a5a8ad",
"co c #a6918c",
"dH c #a6aab3",
"bb c #a6abb1",
"bh c #a6c0d6",
"cS c #a7957e",
"cl c #a7a59f",
"dj c #a99e8b",
"aC c #a9b0b9",
"af c #aa713a",
"ac c #aac7d9",
"aa c #abcce1",
"dq c #ac9073",
"dU c #ac9782",
"aV c #acb4bb",
"ab c #adccdf",
"bo c #aeb3ba",
"aD c #aeb4bb",
"cM c #afaba5",
"c1 c #afb1b4",
"fa c #afb2b6",
"ai c #afc4d5",
"aL c #afcadf",
"aN c #b1c9dd",
"aM c #b1cbdf",
"cQ c #b29e75",
"cN c #b2aca2",
"aO c #b2c9dc",
"fL c #b38e4c",
"dM c #b3a68d",
"ec c #b3ab96",
"aE c #b3b7be",
"b0 c #b48b8b",
"bx c #b4a1a2",
"aI c #b5a296",
"bw c #b5a8a8",
"aP c #b5cbdd",
"#M c #b69f7e",
"aF c #b6ab95",
"bZ c #b79f9e",
"eG c #b7b4b0",
"eq c #b8845a",
"iy c #b8bcc0",
"dK c #b9b5a4",
"fm c #ba7a28",
"dc c #babcc1",
"dY c #bba18f",
"f# c #bbbcbf",
"bY c #bc9fa0",
"bF c #bcbbbd",
"aj c #bcd3e5",
"#H c #bcdaeb",
"cv c #be9e81",
"al c #bed3e3",
"ak c #bed5e5",
"ae c #bf9e70",
"#L c #bfcccc",
"#I c #bfdced",
"c0 c #c08d54",
"cW c #c09650",
"df c #c0b9af",
"aW c #c0c5c8",
"am c #c0d4e3",
"#J c #c0ddec",
"#K c #c1dbeb",
"ba c #c29875",
"dh c #c2b181",
"dk c #c2b7a9",
"du c #c2bbb8",
"bX c #c2bbbb",
"an c #c2d5e4",
"#N c #c2d9e7",
"dS c #c3a274",
"dl c #c3b191",
"cP c #c4b57e",
"b7 c #c4b7af",
"aX c #c5c9cd",
"fl c #c68734",
"di c #c6ad68",
"#O c #c6dbe9",
"ck c #c7c5c0",
"dJ c #c7c6c6",
"e8 c #c8c8ca",
"#P c #c8dce9",
"bE c #c98f50",
"aY c #c9ccd0",
"#Q c #c9ddea",
"cX c #caa16a",
"fK c #caa255",
"cT c #cab17a",
"b1 c #cbbaa3",
"f. c #cbcbcd",
"#S c #ccdde9",
"#R c #ccdeea",
"dt c #ce8d3c",
"cn c #cececf",
"cJ c #cecfd1",
"#T c #cedde9",
"eN c #cfae6f",
"ek c #cfc7c2",
"aZ c #cfd1d4",
"aH c #d08745",
"eH c #d0cfcf",
"fk c #d19541",
"em c #d1cfcf",
"#U c #d1dfea",
"ee c #d2d1d1",
"eT c #d38635",
"eb c #d4d5d6",
"aG c #d59854",
"dT c #d5d4d3",
"iP c #d5d6d6",
"iQ c #d5d6d7",
"b6 c #d69942",
"en c #d6a560",
"a4 c #d6d4d4",
"eF c #d6d5d6",
"e9 c #d6d6d7",
"cL c #d6d7d7",
"a0 c #d6d7d9",
"ej c #d7b26a",
"eQ c #d9b46e",
"dL c #d9c47d",
"fj c #daa44e",
"dg c #dac8ae",
"eJ c #dad2c3",
"a8 c #dad7d1",
"cs c #dbac54",
"fJ c #dbb461",
"eP c #dbbd80",
"eO c #dbc490",
"a3 c #dbdbdc",
"a6 c #dbdcdc",
"eE c #dcdcdd",
"a7 c #dcdddd",
"eS c #dd9c44",
"by c #dddcdd",
"bq c #dddddd",
"a1 c #ddddde",
"el c #dddee0",
"dX c #de983a",
"ct c #dea842",
"eR c #deab55",
"fc c #dec282",
"bA c #decb96",
"br c #dedede",
"ix c #dee1e2",
"cu c #e0a644",
"dV c #e0b159",
"do c #e0bb63",
"eg c #e0d0a6",
"bs c #e0e0e0",
"cK c #e0e1e1",
"b# c #e19e4b",
"eI c #e1e1e2",
"b. c #e2ac54",
"fi c #e2b15c",
"cr c #e2bb55",
"a9 c #e2bf72",
"cp c #e2c475",
"bD c #e3aa4c",
"bt c #e3e2e3",
"bp c #e3e3e3",
"a2 c #e3e3e4",
"ep c #e49c3c",
"cZ c #e4ae48",
"b5 c #e4b24f",
"bC c #e4b755",
"dO c #e4e2df",
"bz c #e4e4e4",
"ch c #e4e5e6",
"fI c #e5c06b",
"e# c #e5e4e5",
"dI c #e5e5e5",
"cY c #e6b953",
"b4 c #e6bf59",
"bB c #e6c15f",
"ea c #e6e6e7",
"a5 c #e6e7e8",
"ds c #e7b24c",
"cq c #e7c660",
"bT c #e7e7e7",
"ef c #e7e7e8",
"eo c #e8b04b",
"dW c #e8b24c",
"fh c #e8bd69",
"fG c #e8c26d",
"fH c #e8c46f",
"dd c #e8e8e9",
"b3 c #e9c761",
"ci c #e9e9e9",
"de c #e9e9ea",
"dr c #eac05c",
"b2 c #eace6e",
"bU c #eaeaea",
"dN c #eaeaeb",
"cV c #ebca67",
"dP c #ebd691",
"bu c #ebebeb",
"bV c #ececec",
"fg c #edc875",
"bv c #ededed",
"cU c #eed373",
"bW c #eeeeee",
"dm c #f0d780",
"cj c #f0f0f0",
"ff c #f1d07f",
"dn c #f1d67a",
"dR c #f2d880",
"eK c #f3df90",
"fe c #f4d786",
"fd c #f5d987",
"dQ c #f5df89",
"eM c #f5df8c",
"ei c #f6e190",
"eh c #f7e394",
"eL c #f7e495",
"Qt.#.a.b.c.d.e.f.g.h.i.i.j.k.l.m.m.n.o.o.p.p.q.r.s.t.u.v.v.w.w.x",
".y.z.A.B.C.D.E.F.G.H.I.J.K.L.M.N.N.O.P.Q.R.S.T.U.V.W.X.Y.Z.M.0.1",
".y.2.3.4.5.6.7.8.9#.###a#b#c#d#e#f#g#h#i#j#k#l#m#n#o#p#q#r#s#t.1",
".y.2#u#v#w#x#y#z#A#B#C#D#E#F#G#H#I#J#K#L#M#N#O#P#Q#R#S#T#U#V#W#X",
".y#Y#Z#0#1#2#3#4#5#6#7#8#9a.a#aaabacadaeafagahaiajakalamanao.0#X",
".y#YapaqarasatauavawaxayazaAaBaCaDaEaFaGaHaIaJaKaLaMaNaOaPaQaRaS",
".y#YaTaUaVaWaXaYaZa0a1a2a3a4a5a6a7a8a9b.b#babbbcbdbebfbgbhbibjbk",
".yblbmbnbobpbqbrbsbtbubvbvbwbxbybzbAbBbCbDbEbFbGbHbIbJbKbLbMbNbO",
".ybPbQbRbSbzbpbTbUbVbWbubXbYbZb0b1b2b3b4b5b6b7b8b9c.c#cacbcc.Kcd",
".ybPcecfcga3brchcibWcjckclcmcncocpcqcrcsctcucvcwcxcyczcAcBcCcDcE",
".ycFcGcHcIcJcKcLcMcNcOcPcQcRcScTcUcVcWcXcYcZc0c1c2c3c4c5c6c7c8c9",
".yd.d#dadbdcdddedfdgdhdidjdkdldmdndodpdqdrdsdtdudvdwdxdydzdAdBdC",
".ydDdEdFdGdHdIa6dJdKdLdMdNdOdPdQdRdSdTdUdVdWdXdYdZd0d1d2d3d4d5d6",
".ydDd7d8d9e.e#eaebecedeeefegeheiejekelemeneoepeqereseteuevewexey",
".yezeAeBeCeDeEbzeFeGeHeIeJeKeLeMeNeOePeQeReSeTeUeVeWeXeYeZe0e1e2",
".ye3e4e5e6e7e8e9f.f#fafbfcfdfefffgfhfifjfkflfmfnfofpfqfrfsftfufv",
".ye3fwfxfyfzfAfBfCfDfEfFfGfHfIfJfKfLfMfNfOfPfQfRfSfTfUfVfWfXfYfZ",
".yf0f1f2fxf3f4f5f6f7f8f9g.g#gagbgcgdgegfggghgigjgkglgmgngmgogpgq",
".ygrgsgtgugvgwgxgygkgzgAgBgCgDfUgEgFgGgGgHgIgJglgmgmgwgKgLgM.CgN",
".ygOgPf2gQgRgKgwgSgxgSgJgTgUgzgVgkgJgWgXgJgygTgYgwgZg0g1gLgMg2g3",
".yg4gMgugug5g0g6g7gwgwg8gngwgxgYgmgTg8g8g9gSh.gZg0g6h#h#gLhahbhc",
".ygOhdhehfhghhhihjhkhlhmhnhohphqhrhphshthuhvhwhxhyhzhAhBhChDhEhF",
".yhGhHhIhJhKhLhMhNhOhPhQ.IhRhS.L.LhS.J.JhRhT.H.GhUhMhLhK.BezhHhF",
"hVhWhWhXhXhYhZhZh0h0h1h1h2h3hMhMhMhM.Dh4h1h1h1h0h0hZhZhYhXhXhWhV",
"h5h5h5h5h5h5h5h5h5h5h5h5h6hMhMhMhMhMhMh7h5h5h5h5h5h5h5h5h5h5h5h5",
"h5h5h5h5h5h5h5h5h5h5h5h5h8hOhOhOhOhOhOh9h5h5h5h5h5h5h5h5h5h5h5h5",
"h5h5h5h5h5h5h5h5i.i#iaibichRidhShSidhRieibiai#i.h5h5h5h5h5h5h5h5",
"h5h5h5h5h5h5h5ifigihiiijikilimimimimilinijiiioigifh5h5h5h5h5h5h5",
"h5ipiqirisitiuiviwixiyiziAiBiCiDiDiCiBiEiziyixiwiviuitisiriqiFiG",
"h5iGiGipiFiqiHiIiJiKiLiMiNiOiPiQiQiPiOiRiMiLiKiJiIiHiqiSipiGiGh5",
"h5h5h5h5h5h5h5h5h5iTiUiViWiXiYiZiZiYiXiWiViUiTh5h5h5h5h5h5h5h5h5",
"h5h5h5h5h5h5h5h5h5h5h5h5h5h5h5h5h5h5h5h5h5h5h5h5h5h5h5h5h5h5h5h5"};
