/* XPM */
static char *dummy[]={
"32 32 502 2",
"Qt c None",
"b6 c #06060b",
"cw c #090408",
".o c #0d0708",
"b4 c #181312",
"b3 c #19161b",
"b5 c #1c130f",
".k c #221c1e",
"cv c #231a16",
".L c #352c20",
".g c #413f3e",
".B c #443c3b",
".y c #463e3a",
"b7 c #473930",
".c c #474546",
"cx c #48392f",
".O c #4f4135",
".p c #4f4743",
"b2 c #594536",
".F c #595450",
"bL c #5e3f29",
"bu c #674c34",
"fT c #685140",
"fA c #685444",
".d c #6a594c",
"cp c #6c4420",
"cE c #704d2f",
".x c #706f70",
"#d c #71523d",
"a5 c #754a27",
"bW c #764b29",
"#M c #785033",
"aQ c #785334",
"dg c #794d21",
"cI c #7b5026",
"ei c #7c5837",
"aF c #7c5a3c",
"#V c #7d5130",
"bx c #7d6553",
"a6 c #7e4c1f",
"bP c #7e5026",
"#R c #7e6c5c",
"dB c #7f532f",
"#s c #7f5a39",
"#. c #805a38",
"ce c #805d41",
"#v c #81522a",
".6 c #81552b",
"dh c #82552e",
"cD c #825a36",
"bi c #826247",
"#Q c #827b73",
".E c #828282",
"ao c #834f22",
"#c c #835223",
"bK c #835a33",
"ac c #84501f",
"fe c #846348",
".8 c #84756d",
"ad c #855025",
"#z c #855322",
"aa c #855424",
"a# c #866f5c",
"#w c #875420",
"ap c #87572a",
"av c #875b38",
"c5 c #875d38",
"#b c #885420",
"dE c #885522",
"#K c #885629",
"cl c #88592c",
".f c #888685",
"bV c #895424",
"bn c #895929",
"cq c #8a6645",
"#u c #8b5521",
"bU c #8b5623",
"fW c #8b5726",
"#Z c #8b5d33",
"fV c #8b5d34",
"bT c #8b613f",
"d8 c #8b796a",
"eu c #8c5722",
"dS c #8c5e32",
"#C c #8d5825",
"co c #8d857e",
"cP c #8e5928",
"## c #8f5821",
"#Y c #8f5929",
"#F c #8f5c2d",
"#J c #8f6139",
"#a c #8f6946",
"#S c #90775d",
"d4 c #915929",
"dF c #916947",
"ej c #927254",
"e6 c #928371",
"#W c #935b21",
"#4 c #935c20",
"et c #935d2a",
"cC c #936d4b",
"bH c #93704e",
"df c #938881",
"ff c #945c26",
"#L c #946035",
"er c #946337",
"fQ c #955e27",
"aq c #956d4b",
"aE c #965d23",
"cg c #966030",
"aP c #96612f",
"#U c #966a3c",
"cJ c #966d4b",
"c9 c #975e23",
"ag c #976231",
"al c #976736",
"#j c #977452",
"eK c #977f6c",
"bY c #979393",
"bt c #985a1f",
"dR c #995f24",
"ar c #996a41",
"cO c #996c3e",
"eT c #9a6125",
"#0 c #9a612f",
"a7 c #9a6631",
"cH c #9a693b",
"ab c #9b611c",
"#i c #9b734b",
"ai c #9c6a3b",
"fX c #9c7449",
"cu c #9c7852",
"eR c #9d6f3e",
"bZ c #9d6f48",
"eG c #9d724d",
"#P c #9d938b",
"fS c #9e6223",
"#x c #9e6e40",
"dt c #9e7653",
"fp c #9e7d5e",
"#e c #9e805d",
"#E c #9f6122",
"fR c #9f6220",
"aO c #9f6f40",
"c6 c #9f6f48",
"db c #9f744f",
"eV c #9f846b",
"eS c #a06024",
"#X c #a06123",
"cf c #a06124",
"bs c #a0714a",
"ew c #a08570",
"#B c #a16125",
".K c #a1a09d",
"aR c #a27143",
"#t c #a27147",
"eU c #a27c55",
"#T c #a2846a",
"by c #a37952",
"#I c #a3866d",
".h c #a38e7e",
"bm c #a47347",
"cA c #a4805c",
"eW c #a48f7d",
"#5 c #a57b50",
"ec c #a5825b",
"fg c #a67443",
"#N c #a6917d",
"an c #a77a4e",
"fB c #a87240",
"c8 c #a97746",
"bh c #a97749",
"ck c #a97a53",
"fD c #a9917b",
"eL c #a99a8d",
"e0 c #ab9273",
"bO c #ac7f58",
".N c #acacac",
"aD c #ad7d4f",
"d5 c #ad9682",
".C c #ada59c",
"a3 c #ae9888",
"fi c #ae9c8c",
".9 c #af9b89",
"fh c #b28e6c",
"fY c #b29d89",
"du c #b38d64",
"dV c #b48d63",
"#7 c #b58556",
"#D c #b58a60",
"#A c #b58c62",
"dW c #b58e65",
".5 c #b5a391",
"d2 c #b68352",
"bG c #b68c62",
"fd c #b6a593",
"c. c #b78f63",
"eq c #b8804c",
"dC c #b89a72",
"aG c #b9844e",
"cV c #b99066",
"#G c #b99775",
"cR c #b9aca0",
"fv c #ba8d65",
"cr c #ba9165",
"eB c #ba966d",
".G c #bab7b3",
"es c #bb8d61",
"b# c #bb8f66",
"fN c #bbafa6",
"fU c #bbb0a6",
".I c #bbb9b8",
".b c #bbbab9",
"d7 c #bbbbbc",
"fC c #bc8757",
"dn c #bc9366",
"#f c #bcab9b",
"fc c #bcb1a7",
"dw c #bd8d61",
"ft c #bdb0a4",
".l c #bdb3a3",
"d. c #be8b5a",
"dj c #be9263",
"c# c #be9264",
"fn c #bea78d",
"c4 c #bf9369",
"fP c #c08c5b",
"cs c #c09362",
"cU c #c09366",
"#2 c #c09367",
".4 c #c0bfbd",
"cN c #c18d5e",
"dO c #c1976d",
"#h c #c1ae97",
"aC c #c1b2a7",
"#l c #c1bbb8",
"cB c #c29668",
"dI c #c2966b",
"#k c #c2b1a0",
"dX c #c39568",
"c3 c #c39868",
"eX c #c3bab3",
"dr c #c48f59",
"d3 c #c4925e",
"ds c #c49d6e",
".R c #c4bab6",
".q c #c4c0bd",
"a. c #c5a386",
".W c #c5c2c1",
"ch c #c69463",
"ak c #c69661",
"dM c #c69668",
"bD c #c69868",
".7 c #c69b6a",
"cF c #c69c6f",
"am c #c79763",
"a2 c #c89566",
"dL c #c89b6b",
"fo c #c89f72",
"#O c #c8bfba",
"ah c #c99663",
"dq c #c99765",
"ek c #c9986b",
"aX c #c99a6b",
"d9 c #c99e6e",
"fa c #c9aa88",
"fF c #c9c2ba",
".0 c #c9c9c8",
"bz c #ca975f",
"da c #ca9864",
"dA c #ca9a6c",
"bM c #ca9b6c",
"dG c #ca9b6d",
"c2 c #ca9d6d",
".1 c #cac9c7",
"de c #cacaca",
"eP c #cb9a70",
"bc c #cb9d6e",
"cY c #cb9d71",
"fL c #cbc5c2",
".P c #cbc8c4",
"dd c #cbcbcb",
"bQ c #cc9b6a",
"cG c #cc9d6b",
"ef c #cc9d6e",
"aH c #cd9767",
"eN c #cd9a6b",
"eh c #cd9d6a",
".n c #cdcccd",
"aJ c #ce9b6c",
"aM c #ce9d6b",
"aW c #ce9d6c",
"eQ c #ce9e70",
"fq c #cead8a",
"fK c #cecbc8",
"cn c #cecece",
"dU c #cf9b68",
"eb c #cf9e6e",
"fE c #cfc9bf",
".s c #cfcdc9",
"ey c #d0d0d0",
"dQ c #d19d69",
"#y c #d19e6b",
"e7 c #d1a071",
"ba c #d1a16e",
"fj c #d1c7c0",
".S c #d1d3d0",
"d1 c #d29b66",
"ae c #d29d69",
"dx c #d2a273",
"ep c #d39c67",
"cb c #d3a273",
"fx c #d3ac83",
"cQ c #d3cdca",
"e3 c #d49e6b",
"aj c #d4a16a",
"ee c #d4a573",
"di c #d4a778",
"dc c #d4cfca",
"dH c #d5a26e",
"eF c #d5a977",
"aB c #d5cec8",
"a4 c #d5d1cd",
".m c #d5d4d1",
"dv c #d6a06a",
"ca c #d6a671",
"#r c #d6d0cb",
"fJ c #d6d2ce",
"b9 c #d7a572",
"e1 c #d8a670",
"cT c #d8a671",
"ev c #d8ab78",
"e5 c #d8ad7c",
".V c #d8d6d5",
".A c #d8d7d7",
".X c #d8d9d7",
"dN c #d9a671",
"eg c #dba871",
"bb c #dba875",
"aY c #dca674",
"#p c #dcdcdc",
"bo c #dda876",
"b0 c #deaa74",
"cm c #dedcda",
"e. c #dfa970",
"cS c #dfaf7a",
"dD c #dfd9d3",
"cj c #e1ae76",
"bC c #e1ae77",
"ct c #e1b079",
".z c #e1dfd5",
"cK c #e3ac75",
"#3 c #e3ae73",
"e9 c #e3af77",
"eC c #e3b17a",
"fy c #e3deda",
"eH c #e4ae78",
"fZ c #e4e1de",
".U c #e4e2e1",
"aL c #e5af75",
"e8 c #e5b07a",
"d6 c #e5e5e5",
"af c #e6b07a",
"cy c #e6b27b",
"cz c #e7b277",
"fr c #e7e1db",
"#H c #e7e1de",
"a8 c #e8af78",
"fu c #e9b57d",
"fG c #eae8e6",
"#6 c #ebb276",
"#m c #ebeceb",
"ci c #ecb579",
"#8 c #ecb57b",
"en c #ecb678",
"dJ c #ecb77a",
"eo c #edb67b",
"cW c #edb879",
"bv c #ededed",
"bk c #eeb478",
"d0 c #eeb67d",
"fO c #eebb82",
"aw c #efb77d",
"do c #efb87c",
"dT c #efbb83",
"bI c #f0b77b",
"b8 c #f0b87b",
".Q c #f0edec",
"bw c #f0f0f0",
"bj c #f1b87d",
"e2 c #f1bc84",
"ex c #f1f0ee",
"#g c #f1f0f0",
"fk c #f1f1f0",
"aA c #f2ba7d",
"bE c #f2bb7d",
"eO c #f2bf7a",
"eY c #f2f2f1",
".e c #f2f2f2",
"dP c #f3b97e",
".J c #f3eee4",
"eA c #f3f2f2",
"#o c #f3f3f3",
"bN c #f4bb7c",
"ed c #f4bc7e",
"aK c #f4bd7e",
"br c #f4be7d",
".M c #f4efe8",
"fb c #f4f3f2",
".H c #f4f3f3",
".r c #f4f3f4",
"fz c #f4f4f4",
"eJ c #f5ba7f",
"dk c #f5bb79",
"bA c #f5bb7c",
"#q c #f5f5f6",
"f. c #f6bc7f",
"au c #f6be81",
"bF c #f6bf83",
"fw c #f6bf86",
"fM c #f6f4f3",
"fs c #f7f6f5",
"bX c #f7f6f6",
".w c #f7f7f7",
"eM c #f8be81",
"bJ c #f8bf7f",
"el c #f8bf80",
"bd c #f9be7f",
"cd c #f9be80",
"cc c #f9c07f",
"c1 c #f9c080",
"cX c #f9c083",
"bS c #f9c182",
"ea c #fabf7f",
"aZ c #fabf80",
"#9 c #fac07f",
"a1 c #fac080",
"#1 c #fac082",
"dK c #fac083",
"e# c #fac084",
"dl c #fac183",
".t c #fafaf7",
".j c #fafafa",
"cZ c #fbbf81",
"dZ c #fbc081",
"dp c #fbc17f",
"as c #fbc182",
".2 c #fbfaf8",
"fm c #fbfaf9",
"eZ c #fbfbf9",
".3 c #fbfbfb",
"em c #fcbe80",
"bg c #fcbe81",
"f# c #fcbf7f",
"aV c #fcbf80",
"dy c #fcc07d",
"b1 c #fcc07e",
"eD c #fcc07f",
"e4 c #fcc080",
"aI c #fcc081",
"aS c #fcc082",
"bl c #fcc083",
"a9 c #fcc17e",
"aN c #fcc180",
"c0 c #fcc181",
"bR c #fcc182",
"b. c #fcc183",
".Z c #fcfbfb",
".T c #fcfcfc",
"ez c #fcfdfc",
"dY c #fdbf7e",
"c7 c #fdc07f",
"bB c #fdc080",
"aU c #fdc081",
"cL c #fdc082",
"dm c #fdc179",
"eE c #fdc17b",
"at c #fdc181",
"ay c #fdc182",
"dz c #fdc183",
"aT c #fdc184",
"bq c #fdc281",
".D c #fdfcfb",
"fI c #fdfcfc",
"fH c #fdfdfc",
".a c #fdfdfd",
".Y c #fdfefb",
".u c #fdfefc",
"fl c #fdfefd",
"#n c #fdfefe",
"ax c #fec07d",
"eI c #fec07f",
"az c #fec081",
"cM c #fec082",
"bp c #fec17d",
"a0 c #fec17f",
"be c #fec180",
"d# c #fec182",
"bf c #fec281",
".v c #fefefd",
".i c #fefefe",
".# c #ffffff",
"QtQtQtQtQtQtQtQtQtQtQtQtQtQtQtQtQtQtQtQtQtQtQtQtQtQtQtQtQtQtQtQt",
".#.#.#.#.#.a.b.c.d.a.#.#.#.#.#.#.#.#.#.#.#.#.#.#.#.#.#.#.#.#.#.#",
".#.#.#.#.#.e.f.g.h.i.#.#.#.#.#.#.#.#.#.#.#.#.#.#.#.#.#.#.#.#.#.#",
".#.#.#.#.#.i.j.k.l.m.#.#.#.#.#.#.#.#.#.#.#.#.#.#.#.#.#.#.#.#.#.#",
".#.#.#.#.#.#.n.o.p.q.#.#.#.#.#.#.#.#.#.#.#.#.#.#.#.#.#.#.#.#.#.#",
".#.#.#.#.#.#.r.s.t.u.v.#.#.#.#.#.#.#.#.#.#.#.#.#.#.#.#.#.#.#.#.#",
".#.#.#.#.#.#.#.w.x.y.z.#.#.#.#.#.#.#.#.#.#.#.#.#.#.#.#.#.#.#.#.#",
".#.#.#.#.#.#.i.A.B.C.D.#.#.#.#.#.#.#.#.#.#.#.#.#.#.#.#.#.#.#.#.#",
".#.#.#.#.#.#.a.E.F.G.#.#.#.#.#.#.#.#.#.#.#.#.#.#.#.#.#.#.#.#.#.#",
".#.#.#.#.#.i.H.I.J.a.#.#.#.#.#.#.#.#.#.#.#.#.#.#.#.#.#.#.#.#.#.#",
".#.#.#.#.#.i.K.L.M.#.#.#.#.#.#.#.i.i.i.i.#.#.#.i.i.i.#.#.#.#.#.#",
".#.#.#.#.#.i.N.O.P.#.#.#.#.i.i.i.Q.R.S.a.T.U.V.W.X.Y.i.i.i.#.#.#",
".#.T.Z.i.i.v.0.1.2.i.i.i.#.3.4.5.6.7.8.9#.###a#b#c#d#e#f#g.i.#.#",
".##h#i#j#k#l#m.i#n#o#p#q.i#r#s#t#u#v#w#x#y#z#A#B#C#D#E#F#G#H.i.#",
".i#I#J#K#L#M#N#O#P#Q#R#S#T#U#V#W#X#Y#Z#0#1#2#3#4#5#6#7#8#9a..Z.#",
".ja#aaabacadaeafagahaiajakalamanaoapaqarasatauavawaxayazazaAaB.#",
".iaCaDaEaFaGaHaIaJaKaLaMatataNaOaPaQaRaSaTaUaVaWaXaYaZa0a1a2a3.i",
".#a4a5a6a7a8a9b.b#babbbcbdbebfaNbgbhbibjbkblbmbnbobpbqbrbsbtbubv",
".#bwbxbybzbAbBbCbDbEbFbGbHbIaxaTbJbKbLbMbNbObPaibQbRbSbTbUbVbWbX",
".#.3bYbZb0b1a9b2b3b4b5b6b7b8b9c.c#cacbcccdcecfcgchbBbBcicjckclcm",
".#cncocpcqcrcsctcucvcwcxcyczcAcBcCcDcEcFcGcHcIcJcKcLcMa1cNcOcPcQ",
".i.icRcScTcUcVcWb1cXcYcZc0c1c2c3c4c5c6aZc7c8c9d.aUazd#aUb1dadbdc",
"dddedfdgdhdidjdkdldmdndoc7dpcLdqdrdsdtdudvdwdxdydzd#aybB#9dAdBdC",
".i.idDdEdFdGdHdIdJdKdLdMdNdOdPdQdRdSdTdUdVdWdXazdYdZd0d1d2d3d4d5",
".id6d7d8d9e.e#eaebecedeeefcTegeheiejekelemeneoepeqereseteuevewex",
"eyddezeAeBeCeDaNeEeFeGeHcZc0eIeJeKeLeMeNeOePeQeReSeTeUeVeWeXeY.#",
".#.#.#eZe0e1e2e3e4e5e6e7e8e9f.f#fafbfcfdfefffgfhfifjfkfl.i.#.#.#",
".#.#.#.#fmfnfofpfqfrfsftfufvfwfxfy.i.#fzfAfBfCfDfEfFfG.i.#.#.#.#",
".#.#.#.#.#.vfH.T.v.#.ifIfJfKfLfM.i.#.#.ifNfOfPfQfRfSfT.e.#.#.#.#",
".#.#.#.#.#.#.#.#.#.#.#.#.#.#.#.#.#.#.#.#.afUfVfWfXfYfZ.i.#.#.#.#",
"QtQtQtQtQtQtQtQtQtQtQtQtQtQtQtQtQtQtQtQtQtQtQtQtQtQtQtQtQtQtQtQt",
"QtQtQtQtQtQtQtQtQtQtQtQtQtQtQtQtQtQtQtQtQtQtQtQtQtQtQtQtQtQtQtQt"};
