<?xml version="1.0" encoding="UTF-8" standalone="no"?>
<svg
   viewBox="0 0 24 24"
   width="24"
   height="24"
   version="1.1"
   id="svg8"
   sodipodi:docname="reimage.svg"
   inkscape:export-filename="/home/lliurex/git/zero-installer-resourceapps/zero-installer-util-media.install-files/usr/share/zero-installer-util-media/reimage.png"
   inkscape:export-xdpi="192"
   inkscape:export-ydpi="192"
   inkscape:version="1.1 (1:1.1+202105261517+ce6663b3b7)"
   xmlns:inkscape="http://www.inkscape.org/namespaces/inkscape"
   xmlns:sodipodi="http://sodipodi.sourceforge.net/DTD/sodipodi-0.dtd"
   xmlns="http://www.w3.org/2000/svg"
   xmlns:svg="http://www.w3.org/2000/svg">
  <sodipodi:namedview
     id="namedview10"
     pagecolor="#ffffff"
     bordercolor="#666666"
     borderopacity="1.0"
     inkscape:pageshadow="2"
     inkscape:pageopacity="0.0"
     inkscape:pagecheckerboard="0"
     showgrid="false"
     inkscape:zoom="27.5"
     inkscape:cx="10.018182"
     inkscape:cy="12.018182"
     inkscape:window-width="3440"
     inkscape:window-height="1243"
     inkscape:window-x="0"
     inkscape:window-y="0"
     inkscape:window-maximized="1"
     inkscape:current-layer="svg8" />
  <defs
     id="defs3051">
    <style
       type="text/css"
       id="current-color-scheme">
      .ColorScheme-Text {
        color:#232629;
      }
      </style>
  </defs>
  <g
     transform="translate(1,1)"
     id="g6">
    <path
       style="fill:currentColor;fill-opacity:1;stroke:none"
       d="M 3 3 L 3 4 L 3 19 L 4 19 L 10 19 L 10 18 L 10 17 L 15 12 L 15.5 11.5 L 14 10 L 10 14 L 9 13 L 4.15625 17.84375 L 4 18 L 4 4 L 18 4 L 18 11 L 19 11 L 19 4 L 19 3 L 4 3 L 3 3 z M 7 5 C 5.892 5 5 5.892 5 7 C 5 8.108 5.892 9 7 9 C 8.108 9 9 8.108 9 7 C 9 5.892 8.108 5 7 5 z M 17 11 L 16 12 L 11 17 L 11 18 L 11 19 L 13 19 L 13 18.96875 L 14 18 L 18 14 L 19 13 L 17 11 z M 16.71875 12.6875 L 17.28125 13.28125 L 12.3125 18.28125 L 11.71875 17.6875 L 16.71875 12.6875 z "
       class="ColorScheme-Text"
       id="path4" />
  </g>
</svg>
