/* XPM */
static char *tupi_32x32[] = {
/* columns rows colors chars-per-pixel */
"32 32 231 2 ",
"   c #0054AE",
".  c #0057B2",
"X  c #005AB4",
"o  c #005BB4",
"O  c #005BB5",
"+  c #005CB5",
"@  c #005CB6",
"#  c #005DB6",
"$  c #005DB7",
"%  c #005EB8",
"&  c #005FB8",
"*  c #005FB9",
"=  c #005FBA",
"-  c #0060BA",
";  c #0061BB",
":  c #0062BB",
">  c #0062BC",
",  c #0062BD",
"<  c #0063BD",
"1  c #0063BE",
"2  c #0064BD",
"3  c #0265BD",
"4  c #0365BD",
"5  c #0064BE",
"6  c #0065BE",
"7  c #0165BE",
"8  c #0065BF",
"9  c #0165BF",
"0  c #0265BE",
"q  c #0668BF",
"w  c #0166C0",
"e  c #0167C2",
"r  c #0267C2",
"t  c #0467C0",
"y  c #0268C2",
"u  c #0368C2",
"i  c #0268C3",
"p  c #0369C3",
"a  c #0468C2",
"s  c #0469C2",
"d  c #076BC3",
"f  c #0369C4",
"g  c #036AC4",
"h  c #036AC5",
"j  c #046AC4",
"k  c #056AC4",
"l  c #076CC5",
"z  c #056CC7",
"x  c #056DC7",
"c  c #096BC2",
"v  c #086CC5",
"b  c #096CC5",
"n  c #0C6FC6",
"m  c #036CC8",
"M  c #056DC8",
"N  c #056EC8",
"B  c #066EC9",
"V  c #066FCA",
"C  c #0770CB",
"Z  c #0771CB",
"A  c #0771CC",
"S  c #0772CC",
"D  c #0D70C8",
"F  c #0E71C9",
"G  c #0871CC",
"H  c #0872CD",
"J  c #0873CE",
"K  c #0973CE",
"L  c #0E73CC",
"P  c #0A75CF",
"I  c #1172C8",
"U  c #1073C9",
"Y  c #1174CA",
"T  c #1275CA",
"R  c #1576CA",
"E  c #1075CD",
"W  c #1275CC",
"Q  c #1076CF",
"!  c #1377CE",
"~  c #177ACF",
"^  c #0874D0",
"/  c #0974D0",
"(  c #0975D0",
")  c #0875D1",
"_  c #0A74D0",
"`  c #0A75D0",
"'  c #0A76D1",
"]  c #0976D3",
"[  c #0B77D3",
"{  c #0C75D0",
"}  c #0E76D0",
"|  c #0C78D3",
" . c #0E78D2",
".. c #0F79D2",
"X. c #0A78D4",
"o. c #0B78D4",
"O. c #0B79D5",
"+. c #0C79D4",
"@. c #0C79D5",
"#. c #0C79D6",
"$. c #0D79D6",
"%. c #0D7AD6",
"&. c #0D7BD7",
"*. c #0D7CD7",
"=. c #0E7CD8",
"-. c #0F7EDA",
";. c #0F7FDB",
":. c #0E7FDC",
">. c #127AD2",
",. c #157CD3",
"<. c #127BD5",
"1. c #147BD4",
"2. c #197DD2",
"3. c #187DD4",
"4. c #107FDB",
"5. c #167FD8",
"6. c #1B80D5",
"7. c #1C81D6",
"8. c #1181DE",
"9. c #1182DE",
"0. c #1182DF",
"q. c #1F86DC",
"w. c #2386DA",
"e. c #2087DC",
"r. c #2287DC",
"t. c #2088DE",
"y. c #2189DF",
"u. c #278BDD",
"i. c #258BDF",
"p. c #1384E1",
"a. c #1385E1",
"s. c #1385E2",
"d. c #1485E3",
"f. c #1487E4",
"g. c #1588E5",
"h. c #1488E6",
"j. c #1589E6",
"k. c #168AE6",
"l. c #168AE7",
"z. c #1B89E2",
"x. c #1C88E0",
"c. c #168BE8",
"v. c #178BE8",
"b. c #178CE9",
"n. c #188EEB",
"m. c #1D8FE9",
"M. c #188FEC",
"N. c #188FED",
"B. c #198FED",
"V. c #1A90ED",
"C. c #1A90EE",
"Z. c #1B91EF",
"A. c #1B92F0",
"S. c #1B92F1",
"D. c #1B93F1",
"F. c #1A94F3",
"G. c #1C94F2",
"H. c #1D95F3",
"J. c #1D95F4",
"K. c #1D96F4",
"L. c #1E97F5",
"P. c #1E98F6",
"I. c #1E98F7",
"U. c #1F9AF9",
"Y. c #1F9DFD",
"T. c #238CE2",
"R. c #268CE0",
"E. c #278FE3",
"W. c #2F94E7",
"Q. c #2591E8",
"!. c #2092EC",
"~. c #2E98ED",
"^. c #309AED",
"/. c #279AF4",
"(. c #2C9BF2",
"). c #2B9DF6",
"_. c #2C9EF6",
"`. c #209BFA",
"'. c #239CF9",
"]. c #219DFC",
"[. c #229DFC",
"{. c #219EFD",
"}. c #229EFD",
"|. c #219EFE",
" X c #229FFF",
".X c #319DF1",
"XX c #21A1FF",
"oX c #23A0FF",
"OX c #22A1FF",
"+X c #22A2FF",
"@X c #23A2FF",
"#X c #24A2FF",
"$X c #24A3FF",
"%X c #25A3FF",
"&X c #26A3FF",
"*X c #23A4FF",
"=X c #25A4FF",
"-X c #25A5FF",
";X c #27A4FF",
":X c #26A5FF",
">X c #27A5FF",
",X c #26A6FF",
"<X c #27A7FF",
"1X c #2FA0F8",
"2X c #2CA3FE",
"3X c #29A4FF",
"4X c #2BA6FF",
"5X c #2FA4FC",
"6X c #2DA6FF",
"7X c #27A8FF",
"8X c #2FAAFF",
"9X c #3CA3F3",
"0X c #3AA4F5",
"qX c #35A3F8",
"wX c #34A5FB",
"eX c #33A6FD",
"rX c #30A7FF",
"tX c #34A7FE",
"yX c #30ABFF",
"uX c #31ABFF",
"iX c #33ABFF",
"pX c #35A9FF",
"aX c #34ABFF",
"sX c #37AAFF",
"dX c #30ADFF",
"fX c #3BAAFD",
"gX c #38AEFF",
"hX c #3DACFF",
"jX c #41ADFE",
"kX c #40AFFF",
"lX c None",
/* pixels */
"lXlXlXlXlXlXlXlXlXlXlXlXlXlXlXlXlXlXlXlXlXlXlXlXlXlXlXlXlXlXlXlX",
"lXlXlXlXlXlXlXlXlXlXlXlXlXlXlXlXlXlXlXlXlXlXlXlXlXlXlXlXlXlXlXlX",
"lXlXlXlXlXlXlXlXlXlXlXlXlXlXlXlXlXlXlXlXlXlXlXlXlXlXlXlXlXlXlXlX",
"lXlXlXlXlXlXlXlXlXlXlXlXlXlXlXlXlXlXlXlXlXlXlXlXlXlXlXlXlXlXlXlX",
"lXlXlXlXlXlXlXlXlXlXlXlXlXlXlXlXlXlXlXlXlXlXlXlXlXlXlXlXlXlXlXlX",
"lXlXlXlXlXlXlXlXlXlXlXlXlXlXlXlXlXlXlXlXlXlXlX5 < lXlXlXlXlXlXlX",
"lXlXlXlXlXlXlXlXlXlXlX> > lXlXlXlXlXlXlXlX> 5 < 5 lXlXlXlXlXlXlX",
"lXlXlXlXlXlXlXlXlXlXlX9 y lXlXlXlXlXlXlXy z w > lXlXlXlXlXlXlXlX",
"lXlXlXlXlXlXlXlXlXlXs ..K lXlXlXlXlXlXx +.Z 9 lXlXlXlXlXlXlXlXlX",
"lXlXlXlXlXlXlXlXlX& 5.m.A lXlXlXlX& J p.[ 8 lXlXlXlXlXlXlXlXlXlX",
"lXlXlXlXlXlXlXlXlXF ).V.e lXlXlX: @.b.$.< lXlXlXlXlXlXlXlXlXlXlX",
"lXlXlXlXlXlXlXlXq T.dXh.= lXlX2 -.C.@.; lXlXlXlXlXlXlXlXlXlXlXlX",
"lXlXlXlXlXlXlX$ 2.wX7X0.@ lX5 8.A.o.* lXlXlXlXlXlXlXlXlXlX5 < lX",
"lXlXlXlXlXlXlXn ^.8XOX;.o ; 8.D.[ # lXlXlXlX@ 8 m / { j < < 5 lX",
"lXlXlXlXlXlX; w.hX-XY.&.% =.Z.` + lX+ u A X.:.k.!.z. .j < lXlXlX",
"lXlXlXlXlXlXU 9XaX+X|.#.G l.H X 6 ( 4.j.F.&XiX_.x.E 0 lXlXlXlXlX",
"lXlXlXlXlX< u.kX>X*XU.f.d./ r %.c.I.#X:X6X(.t.W : lXlXlXlXlXlXlX",
"lXlXlXlXlXT 0XyXXXM.P 9.J.g.N. X=X@XXX4X.XR X lXlXlXlXlXlXlXlXlX",
"lXlXlXlX3 i.gX{.:.x ' B.#X<X,X$X@XOXOX;X1X6.- lXlXlXlXlXlXlXlXlX",
"lXlXlXlXY qX'.) M s.}.-X%X3X2X5XtXsXpXrXuXeXq.t lXlXlXlXlXlXlXlX",
"lXlXlX4 y./.^ S G.:X:XP.4.} >.,.3.7.r.E.~.fXjXR.d lXlXlXlXlXlXlX",
"lXlXlXL Q.| ] `.7X=X-X[.%.O   lXlX. - c I ~ e.W.w.b lXlXlXlXlXlX",
"lXlXt 1.<.[ S.L.C.H.].=X Xa.p lXlXlXlXlXlXlX$ D ! v < lXlXlXlXlX",
"lXlXl Q V O.[ B N C ' 0.K.oXc.V % lXlXlXlXlXlXlXlX2 7 < 5 lXlXlX",
"lXlXa k g i lXlXlXlXlX8 M *.n.v._ , lXlXlXlXlXlXlXlXlX5 < lXlXlX",
"lX5 5 1 < lXlXlXlXlXlXlXlX$ h [ %.B 1 lXlXlXlXlXlXlXlXlXlXlXlXlX",
"lXlX< < lXlXlXlXlXlXlXlXlXlXlXlXg f 5 < lXlXlXlXlXlXlXlXlXlXlXlX",
"lXlX5 5 lXlXlXlXlXlXlXlXlXlXlXlXlXlXlX5 5 lXlXlXlXlXlXlXlXlXlXlX",
"lXlXlXlXlXlXlXlXlXlXlXlXlXlXlXlXlXlXlXlXlXlXlXlXlXlXlXlXlXlXlXlX",
"lXlXlXlXlXlXlXlXlXlXlXlXlXlXlXlXlXlXlXlXlXlXlXlXlXlXlXlXlXlXlXlX",
"lXlXlXlXlXlXlXlXlXlXlXlXlXlXlXlXlXlXlXlXlXlXlXlXlXlXlXlXlXlXlXlX",
"lXlXlXlXlXlXlXlXlXlXlXlXlXlXlXlXlXlXlXlXlXlXlXlXlXlXlXlXlXlXlXlX"
};
