<?xml version="1.0" encoding="UTF-8" standalone="no"?>
<svg
   sodipodi:docname="zero-installer-util-media.svg"
   inkscape:version="1.1 (1:1.1+202105261517+ce6663b3b7)"
   id="svg8"
   version="1.1"
   viewBox="0 0 62.177082 29.104167"
   height="110"
   width="235"
   inkscape:export-filename="/home/lliurex/Baixades/zero-fp-administrativo.svg.png"
   inkscape:export-xdpi="224"
   inkscape:export-ydpi="224"
   xmlns:inkscape="http://www.inkscape.org/namespaces/inkscape"
   xmlns:sodipodi="http://sodipodi.sourceforge.net/DTD/sodipodi-0.dtd"
   xmlns:xlink="http://www.w3.org/1999/xlink"
   xmlns="http://www.w3.org/2000/svg"
   xmlns:svg="http://www.w3.org/2000/svg"
   xmlns:rdf="http://www.w3.org/1999/02/22-rdf-syntax-ns#"
   xmlns:cc="http://creativecommons.org/ns#"
   xmlns:dc="http://purl.org/dc/elements/1.1/">
  <defs
     id="defs2">
    <linearGradient
       inkscape:collect="always"
       id="linearGradient4731">
      <stop
         style="stop-color:#a01515;stop-opacity:1"
         offset="0"
         id="stop4727" />
      <stop
         style="stop-color:#f6596e;stop-opacity:0"
         offset="1"
         id="stop4729" />
    </linearGradient>
    <linearGradient
       inkscape:collect="always"
       id="linearGradient3836">
      <stop
         style="stop-color:#000000;stop-opacity:1;"
         offset="0"
         id="stop3832" />
      <stop
         style="stop-color:#000000;stop-opacity:0;"
         offset="1"
         id="stop3834" />
    </linearGradient>
    <linearGradient
       id="linearGradient119367"
       inkscape:swatch="gradient">
      <stop
         style="stop-color:#0000ff;stop-opacity:1;"
         offset="0"
         id="stop119363" />
      <stop
         style="stop-color:#0000ff;stop-opacity:0;"
         offset="1"
         id="stop119365" />
    </linearGradient>
    <linearGradient
       id="linearGradient118569"
       inkscape:swatch="gradient">
      <stop
         style="stop-color:#0000ff;stop-opacity:1;"
         offset="0"
         id="stop118565" />
      <stop
         style="stop-color:#0000ff;stop-opacity:0;"
         offset="1"
         id="stop118567" />
    </linearGradient>
    <linearGradient
       inkscape:collect="always"
       xlink:href="#linearGradient3836"
       id="linearGradient3838"
       x1="104.60166"
       y1="11.529347"
       x2="8.0576601"
       y2="10.655257"
       gradientUnits="userSpaceOnUse" />
    <filter
       style="color-interpolation-filters:sRGB;"
       inkscape:label="Out of Focus"
       id="filter46579"
       x="-inf"
       y="-inf"
       width="inf"
       height="inf">
      <feFlood
         flood-opacity="1"
         flood-color="rgb(255,255,255)"
         result="flood"
         id="feFlood46565" />
      <feColorMatrix
         in="SourceGraphic"
         values="1 0 0 0 0 0 1 0 0 0 0 0 1 0 0 -0.2125 -0.7154 -0.0721 1 0 "
         result="colormatrix1"
         id="feColorMatrix46567" />
      <feGaussianBlur
         in="colormatrix1"
         stdDeviation="19.0938 22.8374"
         result="blur"
         id="feGaussianBlur46569" />
      <feColorMatrix
         in="blur"
         values="1 0 0 0 0 0 1 0 0 0 0 0 1 0 0 0 0 0 61.9304 -88.6842 "
         result="colormatrix2"
         id="feColorMatrix46571" />
      <feBlend
         in="colormatrix2"
         in2="flood"
         mode="normal"
         result="blend"
         id="feBlend46573" />
      <feComposite
         in="blend"
         in2="blend"
         operator="arithmetic"
         k2="1"
         result="composite1"
         id="feComposite46575" />
      <feComposite
         in2="SourceGraphic"
         operator="in"
         id="feComposite46577"
         result="fbSourceGraphic" />
      <feColorMatrix
         result="fbSourceGraphicAlpha"
         in="fbSourceGraphic"
         values="0 0 0 -1 0 0 0 0 -1 0 0 0 0 -1 0 0 0 0 1 0"
         id="feColorMatrix46599" />
      <feFlood
         id="feFlood46601"
         flood-opacity="1"
         flood-color="rgb(255,255,255)"
         result="flood"
         in="fbSourceGraphic" />
      <feColorMatrix
         id="feColorMatrix46603"
         in="fbSourceGraphic"
         values="1 0 0 0 0 0 1 0 0 0 0 0 1 0 0 -0.2125 -0.7154 -0.0721 1 0 "
         result="colormatrix1" />
      <feGaussianBlur
         id="feGaussianBlur46605"
         in="colormatrix1"
         stdDeviation="19.0938 22.8374"
         result="blur" />
      <feColorMatrix
         id="feColorMatrix46607"
         in="blur"
         values="1 0 0 0 0 0 1 0 0 0 0 0 1 0 0 0 0 0 61.9304 -88.6842 "
         result="colormatrix2" />
      <feBlend
         in2="flood"
         id="feBlend46609"
         in="colormatrix2"
         mode="normal"
         result="blend" />
      <feComposite
         in2="blend"
         id="feComposite46611"
         in="blend"
         operator="arithmetic"
         k2="1"
         result="composite1" />
      <feComposite
         in2="fbSourceGraphic"
         id="feComposite46613"
         operator="in"
         result="fbSourceGraphic" />
      <feColorMatrix
         result="fbSourceGraphicAlpha"
         in="fbSourceGraphic"
         values="0 0 0 -1 0 0 0 0 -1 0 0 0 0 -1 0 0 0 0 1 0"
         id="feColorMatrix46633" />
      <feFlood
         id="feFlood46635"
         flood-opacity="1"
         flood-color="rgb(255,255,255)"
         result="flood"
         in="fbSourceGraphic" />
      <feColorMatrix
         id="feColorMatrix46637"
         in="fbSourceGraphic"
         values="1 0 0 0 0 0 1 0 0 0 0 0 1 0 0 -0.2125 -0.7154 -0.0721 1 0 "
         result="colormatrix1" />
      <feGaussianBlur
         id="feGaussianBlur46639"
         in="colormatrix1"
         stdDeviation="19.0938 22.8374"
         result="blur" />
      <feColorMatrix
         id="feColorMatrix46641"
         in="blur"
         values="1 0 0 0 0 0 1 0 0 0 0 0 1 0 0 0 0 0 61.9304 -88.6842 "
         result="colormatrix2" />
      <feBlend
         in2="flood"
         id="feBlend46643"
         in="colormatrix2"
         mode="normal"
         result="blend" />
      <feComposite
         in2="blend"
         id="feComposite46645"
         in="blend"
         operator="arithmetic"
         k2="1"
         result="composite1" />
      <feComposite
         in2="fbSourceGraphic"
         id="feComposite46647"
         operator="in" />
    </filter>
    <filter
       style="color-interpolation-filters:sRGB;"
       inkscape:label="Blur"
       id="filter21100"
       x="-0.064543053"
       y="-0.095132342"
       width="1.1290861"
       height="1.1902647">
      <feGaussianBlur
         stdDeviation="0.3 0.3"
         result="blur"
         id="feGaussianBlur21098" />
    </filter>
    <filter
       style="color-interpolation-filters:sRGB;"
       inkscape:label="Blur"
       id="filter21161"
       x="-0.018735993"
       y="-0.13024513"
       width="1.037472"
       height="1.2604903">
      <feGaussianBlur
         stdDeviation="0.3 0.3"
         result="blur"
         id="feGaussianBlur21159" />
    </filter>
    <radialGradient
       inkscape:collect="always"
       xlink:href="#linearGradient4731"
       id="radialGradient21885"
       cx="-8.9424801"
       cy="16.869598"
       fx="-8.9424801"
       fy="16.869598"
       r="86.462838"
       gradientTransform="matrix(1.4136277,-0.0054906,-3.2527773e-4,0.18390955,33.808248,11.495004)"
       gradientUnits="userSpaceOnUse" />
    <filter
       inkscape:collect="always"
       style="color-interpolation-filters:sRGB"
       id="filter919"
       x="-0.0052186693"
       y="-0.014841945"
       width="1.0104373"
       height="1.0296839">
      <feGaussianBlur
         inkscape:collect="always"
         stdDeviation="0.13271466"
         id="feGaussianBlur921" />
    </filter>
  </defs>
  <sodipodi:namedview
     inkscape:document-rotation="0"
     inkscape:window-maximized="1"
     inkscape:window-y="0"
     inkscape:window-x="0"
     inkscape:window-height="1243"
     inkscape:window-width="3440"
     inkscape:guide-bbox="true"
     showguides="true"
     inkscape:snap-global="false"
     borderlayer="true"
     units="px"
     showgrid="false"
     inkscape:current-layer="layer4"
     inkscape:document-units="mm"
     inkscape:cy="94.809323"
     inkscape:cx="164.97724"
     inkscape:zoom="3.3277318"
     inkscape:pageshadow="2"
     inkscape:pageopacity="0.0"
     borderopacity="1"
     bordercolor="#000000"
     pagecolor="#ffffff"
     id="base"
     inkscape:pagecheckerboard="0">
    <inkscape:grid
       id="grid898"
       type="xygrid" />
  </sodipodi:namedview>
  <metadata
     id="metadata5">
    <rdf:RDF>
      <cc:Work
         rdf:about="">
        <dc:format>image/svg+xml</dc:format>
        <dc:type
           rdf:resource="http://purl.org/dc/dcmitype/StillImage" />
      </cc:Work>
    </rdf:RDF>
  </metadata>
  <g
     inkscape:groupmode="layer"
     id="layer5"
     inkscape:label="color fondo 1"
     style="display:inline;opacity:0.819062"
     sodipodi:insensitive="true">
    <rect
       style="display:inline;fill:#a01515;fill-opacity:1;stroke:#ddee2e;stroke-width:0"
       id="rect22387"
       width="153.12901"
       height="42.854404"
       x="-22.102264"
       y="-6.6387987" />
  </g>
  <g
     inkscape:groupmode="layer"
     id="layer1"
     inkscape:label="color fondo"
     style="display:inline;mix-blend-mode:color-dodge"
     sodipodi:insensitive="true">
    <rect
       style="fill:url(#radialGradient21885);fill-opacity:1;stroke:#a15d5d;stroke-width:0;stroke-opacity:0"
       id="rect23063"
       width="65.03624"
       height="31.802397"
       x="-1.2560955"
       y="-1.6531599" />
  </g>
  <g
     inkscape:groupmode="layer"
     id="layer2"
     inkscape:label="fondo audio"
     style="display:inline;opacity:0.252493;mix-blend-mode:normal;filter:url(#filter919)"
     sodipodi:insensitive="true">
    <path
       d="m 0.9270074,10.476367 0.814562,-0.0045 0.0054,0.63339 -0.814568,0.0045 z m 1.598494,-0.7016282 0.814568,-0.0045 0.01741,2.0387102 -0.814568,0.0045 z m 1.629641,0.05036 0.814573,-0.0045 0.01629,1.9199702 -0.814562,0.0045 z m 1.632197,0.3472722 0.814562,-0.0045 0.01236,1.425119 -0.814556,0.0045 z m 24.3296766,-9.75436424 0.814568,-0.0045 0.1807,21.04030724 -0.814568,0.0045 z m -17.846473,5.83891504 0.814573,-0.0045 0.08246,9.5997622 -0.814562,0.0045 z m 24.406822,2.101975 0.814567,-0.0045 0.04381,5.1264722 -0.814567,0.0045 z m -17.85527,1.9394692 0.814568,-0.0045 0.01236,1.425115 -0.814568,0.0045 z m 24.322673,-7.6957322 0.814562,-0.0045 0.14228,16.5670212 -0.814568,0.0045 z m -21.118842,4.214039 0.814567,-0.0045 0.0719,8.3725782 -0.814568,0.0045 z m 24.385903,-0.332633 0.814562,-0.0045 0.07549,8.7882412 -0.814568,0.0045 z m -22.765401,-3.556002 0.814556,-0.0045 0.138685,16.1513582 -0.814556,0.0045 z m 24.412084,2.715564 0.814557,-0.0045 0.08942,10.4112962 -0.814562,0.0045 z m -19.565183,-4.583196 0.814556,-0.0045 0.170141,19.8131232 -0.814562,0.0045 z m 24.454443,4.773935 0.814556,-0.0045 0.086,10.0154302 -0.814556,0.0045 z m -27.719847,-5.58726204 0.814562,-0.0045 0.184239,21.45597424 -0.814562,0.0045 z m 24.451044,4.37806704 0.814568,-0.0045 0.107117,12.4698022 -0.814562,0.0045 z m 4.860843,-0.244576 0.814562,-0.0045 0.110656,12.8854612 -0.814562,0.0045 z m -27.67222,-2.915298 0.814568,-0.0045 0.163175,19.0015972 -0.814568,0.0045 z m 24.439457,5.902297 0.814567,-0.0045 0.05965,6.9474542 -0.814567,0.0045 z m 4.877913,-4.00559 0.814562,-0.0045 0.128181,14.9241702 -0.814562,0.0045 z m 1.646638,2.029719 0.814562,-0.0045 0.09296,10.8269502 -0.814568,0.0045 z m 3.294978,4.257365 0.814562,-0.0045 0.01966,2.2564462 -0.814562,0.0045 z m -1.666051,-1.415986 0.814562,-0.0045 0.04381,5.1264762 -0.814562,0.0045 z m -52.0511916,1.099 0.814562,-0.0045 0.02977,3.4836302 -0.814562,0.0045 z m 24.3315136,-6.66647 0.814562,-0.0045 0.14228,16.5670212 -0.814568,0.0045 z m -16.199627,5.018227 0.814567,-0.0045 0.0578,6.7297272 -0.814568,0.0045 z m 24.37163,-1.995244 0.814568,-0.0045 0.08942,10.4112932 -0.814568,0.0045 z m -29.290643,-1.659323 0.814567,-0.0045 0.120711,14.0532622 -0.814568,0.0045 z m 24.457678,5.150006 0.814568,-0.0045 0.02977,3.4836252 -0.814562,0.0045 z m -21.174934,-2.317761 0.814567,-0.0045 0.0719,8.3725782 -0.814568,0.0045 z m 24.412287,-0.13481 0.814567,-0.0045 0.0719,8.3725832 -0.814568,0.0045 z m -17.871284,2.949061 0.814568,-0.0045 0.02303,2.6523042 -0.814568,0.0045 z m 24.338648,-5.835149 0.814567,-0.0045 0.120711,14.0532652 -0.814562,0.0045 z m -27.626863,5.239689 0.814562,-0.0045 0.0337,3.8992882 -0.814563,0.0045 z m 24.368603,-5.221694 0.814568,-0.0045 0.12071,14.0532612 -0.814567,0.0045 z m -32.5334726,3.030027 0.814568,-0.0045 0.0719,8.3725832 -0.814568,0.0045 z m 24.4300026,-0.946475 0.814568,-0.0045 0.086,10.0154252 -0.814568,0.0045 z"
       id="path2823"
       style="display:inline;fill:url(#linearGradient3838);fill-opacity:1;stroke-width:0.221042"
       inkscape:connector-curvature="0" />
  </g>
  <g
     inkscape:groupmode="layer"
     id="layer3"
     inkscape:label="logo"
     style="display:inline;opacity:0.586356;mix-blend-mode:normal"
     sodipodi:insensitive="true">
    <g
       id="g3430"
       transform="matrix(0.03971353,-0.01706922,0.01706922,0.03971353,-4.4814018,7.101859)"
       style="display:inline">
      <path
         d="M 222.79,160.442 H 116.4 c -4.142,0 -7.5,3.358 -7.5,7.5 v 87.513 c 0,0.074 0.009,0.146 0.011,0.22 0.004,0.14 0.009,0.279 0.021,0.417 0.01,0.122 0.026,0.243 0.042,0.363 0.016,0.117 0.032,0.234 0.054,0.35 0.024,0.132 0.053,0.262 0.084,0.392 0.025,0.104 0.051,0.208 0.08,0.312 0.038,0.131 0.079,0.26 0.123,0.388 0.036,0.103 0.072,0.205 0.112,0.307 0.047,0.12 0.098,0.237 0.151,0.354 0.049,0.108 0.1,0.215 0.155,0.322 0.053,0.104 0.109,0.206 0.167,0.306 0.065,0.114 0.133,0.226 0.205,0.337 0.057,0.088 0.117,0.175 0.178,0.261 0.081,0.114 0.164,0.225 0.25,0.335 0.065,0.081 0.132,0.16 0.2,0.238 0.089,0.104 0.181,0.206 0.276,0.305 0.08,0.082 0.164,0.162 0.247,0.241 0.09,0.086 0.181,0.17 0.276,0.251 0.104,0.089 0.211,0.172 0.32,0.255 0.06,0.046 0.115,0.097 0.177,0.141 0.019,0.014 0.04,0.022 0.059,0.036 0.286,0.201 0.585,0.381 0.898,0.542 0.06,0.031 0.121,0.058 0.181,0.087 0.301,0.145 0.611,0.274 0.933,0.378 0.017,0.006 0.034,0.014 0.051,0.019 0.317,0.1 0.647,0.171 0.981,0.228 0.086,0.015 0.171,0.028 0.258,0.04 0.318,0.043 0.641,0.072 0.97,0.074 0.011,0 0.021,0.003 0.032,0.003 0.003,0 0.005,0 0.008,0 h 106.39 c 4.142,0 7.5,-3.358 7.5,-7.5 v -87.513 c 0,-4.144 -3.358,-7.502 -7.5,-7.502 z m -7.5,15 v 61.04 l -15.784,-19.994 c -1.423,-1.802 -3.592,-2.853 -5.887,-2.853 -0.013,0 -0.026,0 -0.039,0 -2.309,0.012 -4.484,1.087 -5.895,2.914 l -8.698,11.256 -19.534,-28.11 c -1.391,-2.001 -3.667,-3.202 -6.104,-3.22 -0.019,0 -0.037,0 -0.055,0 -2.417,0 -4.687,1.165 -6.096,3.131 L 123.9,232.115 v -56.673 z m -22.303,72.513 -5.025,-7.232 5.72,-7.402 11.553,14.635 h -12.248 z m -18.265,0 h -43.719 l 22.196,-30.972 z"
         id="path2995"
         inkscape:connector-curvature="0" />
      <path
         d="m 373.918,0 h -94.633 c -4.142,0 -7.5,3.358 -7.5,7.5 v 77.726 c -4.333,-2.477 -9.342,-3.901 -14.68,-3.901 -16.365,0 -29.68,13.314 -29.68,29.68 0,5.519 1.519,10.687 4.153,15.118 H 82.082 c -4.142,0 -7.5,3.358 -7.5,7.5 V 308.65 c 0,4.142 3.358,7.5 7.5,7.5 h 69.584 V 448.5 c 0,4.142 3.358,7.5 7.5,7.5 h 194.761 c 4.142,0 7.5,-3.358 7.5,-7.5 V 309.092 c 0,-4.142 -3.358,-7.5 -7.5,-7.5 H 264.61 v -161.87 c 12.745,-3.332 22.177,-14.943 22.177,-28.717 v -76.29 h 79.633 v 50.511 c -4.333,-2.477 -9.342,-3.901 -14.68,-3.901 -16.365,0 -29.679,13.314 -29.679,29.68 0,16.365 13.314,29.68 29.679,29.68 15.365,0 28.039,-11.737 29.531,-26.715 0.097,-0.48 0.148,-0.977 0.148,-1.486 V 7.5 C 381.418,3.358 378.061,0 373.918,0 Z M 89.582,141.123 H 249.609 V 301.15 H 89.582 Z M 346.426,441 H 166.665 V 316.592 H 346.426 Z M 257.105,125.685 c -8.094,0 -14.68,-6.586 -14.68,-14.68 0,-8.094 6.585,-14.68 14.68,-14.68 8.095,0 14.68,6.585 14.68,14.68 10e-4,8.094 -6.585,14.68 -14.68,14.68 z M 286.786,19.715 V 15 h 79.633 v 4.715 z m 64.953,105.97 c -8.094,0 -14.679,-6.586 -14.679,-14.68 0,-8.094 6.585,-14.68 14.679,-14.68 8.094,0 14.68,6.585 14.68,14.68 -10e-4,8.094 -6.586,14.68 -14.68,14.68 z"
         id="path2997"
         inkscape:connector-curvature="0" />
      <path
         d="m 202.53,433.449 h 108.032 c 4.142,0 7.5,-3.358 7.5,-7.5 v -94.306 c 0,-4.142 -3.358,-7.5 -7.5,-7.5 H 202.53 c -4.142,0 -7.5,3.358 -7.5,7.5 v 94.306 c 0,4.142 3.358,7.5 7.5,7.5 z m 7.5,-94.306 h 93.032 v 79.306 H 210.03 Z"
         id="path2999"
         inkscape:connector-curvature="0" />
      <path
         d="m 177.926,339.143 h 6 c 4.142,0 7.5,-3.358 7.5,-7.5 0,-4.142 -3.358,-7.5 -7.5,-7.5 h -6 c -4.142,0 -7.5,3.358 -7.5,7.5 0,4.142 3.358,7.5 7.5,7.5 z"
         id="path3001"
         inkscape:connector-curvature="0" />
      <path
         d="m 177.926,362.72 h 6 c 4.142,0 7.5,-3.358 7.5,-7.5 0,-4.142 -3.358,-7.5 -7.5,-7.5 h -6 c -4.142,0 -7.5,3.358 -7.5,7.5 0,4.142 3.358,7.5 7.5,7.5 z"
         id="path3003"
         inkscape:connector-curvature="0" />
      <path
         d="m 177.926,386.296 h 6 c 4.142,0 7.5,-3.358 7.5,-7.5 0,-4.142 -3.358,-7.5 -7.5,-7.5 h -6 c -4.142,0 -7.5,3.358 -7.5,7.5 0,4.142 3.358,7.5 7.5,7.5 z"
         id="path3005"
         inkscape:connector-curvature="0" />
      <path
         d="m 177.926,409.873 h 6 c 4.142,0 7.5,-3.358 7.5,-7.5 0,-4.142 -3.358,-7.5 -7.5,-7.5 h -6 c -4.142,0 -7.5,3.358 -7.5,7.5 0,4.142 3.358,7.5 7.5,7.5 z"
         id="path3007"
         inkscape:connector-curvature="0" />
      <path
         d="m 177.926,433.449 h 6 c 4.142,0 7.5,-3.358 7.5,-7.5 0,-4.142 -3.358,-7.5 -7.5,-7.5 h -6 c -4.142,0 -7.5,3.358 -7.5,7.5 0,4.142 3.358,7.5 7.5,7.5 z"
         id="path3009"
         inkscape:connector-curvature="0" />
      <path
         d="m 328.926,339.143 h 6 c 4.142,0 7.5,-3.358 7.5,-7.5 0,-4.142 -3.358,-7.5 -7.5,-7.5 h -6 c -4.142,0 -7.5,3.358 -7.5,7.5 0,4.142 3.358,7.5 7.5,7.5 z"
         id="path3011"
         inkscape:connector-curvature="0" />
      <path
         d="m 328.926,362.72 h 6 c 4.142,0 7.5,-3.358 7.5,-7.5 0,-4.142 -3.358,-7.5 -7.5,-7.5 h -6 c -4.142,0 -7.5,3.358 -7.5,7.5 0,4.142 3.358,7.5 7.5,7.5 z"
         id="path3013"
         inkscape:connector-curvature="0" />
      <path
         d="m 328.926,386.296 h 6 c 4.142,0 7.5,-3.358 7.5,-7.5 0,-4.142 -3.358,-7.5 -7.5,-7.5 h -6 c -4.142,0 -7.5,3.358 -7.5,7.5 0,4.142 3.358,7.5 7.5,7.5 z"
         id="path3015"
         inkscape:connector-curvature="0" />
      <path
         d="m 328.926,409.873 h 6 c 4.142,0 7.5,-3.358 7.5,-7.5 0,-4.142 -3.358,-7.5 -7.5,-7.5 h -6 c -4.142,0 -7.5,3.358 -7.5,7.5 0,4.142 3.358,7.5 7.5,7.5 z"
         id="path3017"
         inkscape:connector-curvature="0" />
      <path
         d="m 328.926,433.449 h 6 c 4.142,0 7.5,-3.358 7.5,-7.5 0,-4.142 -3.358,-7.5 -7.5,-7.5 h -6 c -4.142,0 -7.5,3.358 -7.5,7.5 0,4.142 3.358,7.5 7.5,7.5 z"
         id="path3019"
         inkscape:connector-curvature="0" />
      <path
         d="M 274.049,366.379 256.254,354.32 c -2.53,-1.714 -5.468,-2.582 -8.416,-2.582 -2.408,0 -4.822,0.579 -7.027,1.748 -4.905,2.602 -7.972,7.7 -7.972,13.252 v 24.118 c 0,5.552 3.067,10.65 7.972,13.252 2.205,1.169 4.62,1.748 7.027,1.748 2.948,0 5.885,-0.868 8.416,-2.583 l 17.795,-12.059 c 4.118,-2.791 6.585,-7.442 6.585,-12.417 0,-4.976 -2.467,-9.627 -6.585,-12.418 z m -26.21,24.476 v -24.118 l 17.795,12.059 z"
         id="path3021"
         inkscape:connector-curvature="0" />
    </g>
  </g>
  <g
     inkscape:groupmode="layer"
     id="layer4"
     inkscape:label="texto"
     style="display:inline;mix-blend-mode:multiply">
    <g
       aria-label=" "
       id="text10611-1"
       style="font-weight:bold;font-size:8.24468px;line-height:1.25;font-family:Gayathri;-inkscape-font-specification:'Gayathri Bold';letter-spacing:0px;display:inline;opacity:0.456763;mix-blend-mode:color-dodge;stroke-width:0.309175;filter:url(#filter46579)" />
    <g
       id="g23742">
      <g
         aria-label="Útil "
         id="text10611"
         style="font-weight:bold;font-size:8.24468px;font-family:Gayathri;-inkscape-font-specification:'Gayathri Bold';letter-spacing:0px;opacity:0.456763;mix-blend-mode:color-dodge;stroke-width:0.309175">
        <path
           style="color:#000000;-inkscape-font-specification:'Gayathri, Bold';fill:#000000;-inkscape-stroke:none"
           d="m 21.534538,4.9176263 c 0.04831,0 0.09662,-0.016103 0.144927,-0.052335 l 1.433166,-1.0547457 c 0.07649,-0.056361 0.108695,-0.1328497 0.108695,-0.2173904 0,-0.092592 -0.04026,-0.1892101 -0.104669,-0.2737508 -0.08051,-0.1086952 -0.205313,-0.1892101 -0.326086,-0.1892101 -0.06039,0 -0.124798,0.024155 -0.181158,0.076489 l -1.300317,1.2117499 c -0.05636,0.052335 -0.08052,0.1127209 -0.08052,0.1731071 0,0.068438 0.03221,0.1409011 0.08857,0.2053131 0.06039,0.072463 0.136875,0.1207724 0.21739,0.1207724 z m 0.05636,5.7809727 c 1.058771,0 2.31883,-0.664248 2.31883,-1.8357406 V 5.2678663 c 0,-0.1690814 -0.277777,-0.2254418 -0.406601,-0.2254418 -0.132849,0 -0.410626,0.05636 -0.410626,0.2254418 v 3.5949921 c 0,0.7729435 -0.732686,1.3848566 -1.493552,1.3848566 -0.75684,0 -1.497578,-0.5958101 -1.497578,-1.3848566 V 5.2678663 c 0,-0.1690814 -0.277776,-0.2254418 -0.410626,-0.2254418 -0.128824,0 -0.4066,0.05636 -0.4066,0.2254418 v 3.5949921 c 0,1.1634406 1.247981,1.8357406 2.306753,1.8357406 z"
           id="path23466" />
        <path
           style="color:#000000;-inkscape-font-specification:'Gayathri, Bold';fill:#000000;-inkscape-stroke:none"
           d="m 26.623082,10.698599 c 0.169082,0 0.342189,-0.0161 0.51127,-0.04428 0.112721,-0.02013 0.338163,-0.08857 0.338163,-0.21739 0,-0.177133 -0.289854,-0.233494 -0.422703,-0.233494 -0.140902,0 -0.273751,0.04428 -0.422704,0.04428 -0.410626,0 -0.53945,-0.3019306 -0.53945,-0.6602221 V 7.0271178 h 0.676326 c 0.128823,0 0.410626,-0.056361 0.410626,-0.2254419 0,-0.1690813 -0.285828,-0.2254418 -0.410626,-0.2254418 H 26.087658 V 5.2678663 c 0,-0.1690814 -0.281802,-0.2254418 -0.410626,-0.2254418 -0.128824,0 -0.410626,0.05636 -0.410626,0.2254418 v 1.3083678 h -0.450884 c -0.128824,0 -0.406601,0.056361 -0.406601,0.2254418 0,0.1690814 0.277777,0.2254419 0.406601,0.2254419 h 0.450884 v 2.5603751 c 0,0.7970981 0.615939,1.1070801 1.356676,1.1111061 z"
           id="path23468" />
        <path
           style="color:#000000;-inkscape-font-specification:'Gayathri, Bold';fill:#000000;-inkscape-stroke:none"
           d="m 28.285716,6.2219684 c 0.213364,0 0.410626,-0.1650557 0.410626,-0.4106262 0,-0.2495964 -0.197262,-0.414652 -0.410626,-0.414652 -0.217391,0 -0.414652,0.1650556 -0.414652,0.414652 0,0.2455705 0.197261,0.4106262 0.414652,0.4106262 z m 0,4.4766306 c 0.128824,0 0.4066,-0.05636 0.4066,-0.225442 V 6.8016759 c 0,-0.1690813 -0.277776,-0.2254418 -0.4066,-0.2254418 -0.13285,0 -0.410626,0.056361 -0.410626,0.2254418 v 3.6714811 c 0,0.169082 0.277776,0.225442 0.410626,0.225442 z"
           id="path23470" />
        <path
           style="color:#000000;-inkscape-font-specification:'Gayathri, Bold';fill:#000000;-inkscape-stroke:none"
           d="m 30.03289,10.698599 c 0.128824,0 0.4066,-0.05636 0.4066,-0.225442 V 5.2678663 c 0,-0.1690814 -0.277776,-0.2254418 -0.4066,-0.2254418 -0.13285,0 -0.410626,0.05636 -0.410626,0.2254418 v 5.2052907 c 0,0.169082 0.277776,0.225442 0.410626,0.225442 z"
           id="path23472" />
      </g>
      <g
         aria-label="Útil "
         id="text10611-7"
         style="font-weight:bold;font-size:8.24468px;font-family:Gayathri;-inkscape-font-specification:'Gayathri Bold';letter-spacing:0px;opacity:0.456763;mix-blend-mode:color-dodge;stroke-width:0.309175;filter:url(#filter21100)">
        <path
           style="color:#000000;-inkscape-font-specification:'Gayathri, Bold';fill:#000000;-inkscape-stroke:none"
           d="m 21.33132,5.2393207 c 0.04831,0 0.09662,-0.016103 0.144927,-0.052335 l 1.433166,-1.0547458 c 0.07649,-0.05636 0.108695,-0.1328496 0.108695,-0.2173903 0,-0.092592 -0.04026,-0.1892101 -0.10467,-0.2737508 -0.08051,-0.1086952 -0.205313,-0.1892101 -0.326085,-0.1892101 -0.06039,0 -0.124798,0.024154 -0.181159,0.076489 L 21.105878,4.740128 c -0.05636,0.052335 -0.08052,0.112721 -0.08052,0.1731072 0,0.068438 0.03221,0.1409011 0.08857,0.2053131 0.06039,0.072463 0.136876,0.1207724 0.217391,0.1207724 z m 0.05636,5.7809723 c 1.058772,0 2.31883,-0.664248 2.31883,-1.8357402 V 5.5895607 c 0,-0.1690814 -0.277776,-0.2254419 -0.4066,-0.2254419 -0.13285,0 -0.410626,0.056361 -0.410626,0.2254419 v 3.5949921 c 0,0.7729434 -0.732686,1.3848572 -1.493552,1.3848572 -0.756841,0 -1.497578,-0.5958108 -1.497578,-1.3848572 V 5.5895607 c 0,-0.1690814 -0.277777,-0.2254419 -0.410626,-0.2254419 -0.128824,0 -0.406601,0.056361 -0.406601,0.2254419 v 3.5949921 c 0,1.1634412 1.247982,1.8357402 2.306753,1.8357402 z"
           id="path921" />
        <path
           style="color:#000000;-inkscape-font-specification:'Gayathri, Bold';fill:#000000;-inkscape-stroke:none"
           d="m 26.419864,11.020293 c 0.169081,0 0.342188,-0.0161 0.51127,-0.04428 0.112721,-0.02013 0.338163,-0.08857 0.338163,-0.21739 0,-0.177133 -0.289854,-0.233493 -0.422704,-0.233493 -0.140901,0 -0.273751,0.04428 -0.422703,0.04428 -0.410627,0 -0.53945,-0.301931 -0.53945,-0.6602227 V 7.3488121 h 0.676325 c 0.128824,0 0.410626,-0.05636 0.410626,-0.2254418 0,-0.1690814 -0.285828,-0.2254418 -0.410626,-0.2254418 H 25.88444 V 5.5895607 c 0,-0.1690814 -0.281803,-0.2254419 -0.410627,-0.2254419 -0.128824,0 -0.410626,0.056361 -0.410626,0.2254419 v 1.3083678 h -0.450884 c -0.128823,0 -0.4066,0.05636 -0.4066,0.2254418 0,0.1690814 0.277777,0.2254418 0.4066,0.2254418 h 0.450884 v 2.5603752 c 0,0.7970977 0.615939,1.1070807 1.356677,1.1111057 z"
           id="path923" />
        <path
           style="color:#000000;-inkscape-font-specification:'Gayathri, Bold';fill:#000000;-inkscape-stroke:none"
           d="m 28.082497,6.5436627 c 0.213365,0 0.410627,-0.1650556 0.410627,-0.4106262 0,-0.2495963 -0.197262,-0.4146519 -0.410627,-0.4146519 -0.21739,0 -0.414652,0.1650556 -0.414652,0.4146519 0,0.2455706 0.197262,0.4106262 0.414652,0.4106262 z m 0,4.4766303 c 0.128824,0 0.406601,-0.05636 0.406601,-0.225441 V 7.1233703 c 0,-0.1690814 -0.277777,-0.2254418 -0.406601,-0.2254418 -0.132849,0 -0.410626,0.05636 -0.410626,0.2254418 v 3.6714817 c 0,0.169081 0.277777,0.225441 0.410626,0.225441 z"
           id="path925" />
        <path
           style="color:#000000;-inkscape-font-specification:'Gayathri, Bold';fill:#000000;-inkscape-stroke:none"
           d="m 29.829671,11.020293 c 0.128824,0 0.406601,-0.05636 0.406601,-0.225441 V 5.5895607 c 0,-0.1690814 -0.277777,-0.2254419 -0.406601,-0.2254419 -0.132849,0 -0.410626,0.056361 -0.410626,0.2254419 v 5.2052913 c 0,0.169081 0.277777,0.225441 0.410626,0.225441 z"
           id="path927" />
      </g>
      <g
         id="g23710">
        <g
           aria-label="Multimedia "
           id="text10611-3"
           style="font-weight:bold;font-size:8.05795px;font-family:Gayathri;-inkscape-font-specification:'Gayathri Bold';letter-spacing:0px;opacity:0.456763;mix-blend-mode:color-dodge;stroke-width:0.302172">
          <path
             style="color:#000000;-inkscape-font-specification:'Gayathri Bold';fill:#000000;-inkscape-stroke:none"
             d="m 26.254729,18.142502 c 0.121971,0 0.397389,-0.05508 0.397389,-0.2164 v -5.091303 c 0,-0.17312 -0.267549,-0.220334 -0.401324,-0.220334 -0.118036,0 -0.361978,0.04328 -0.413127,0.165251 l -1.802022,4.406691 -1.971208,-4.406691 c -0.06295,-0.137709 -0.279352,-0.165251 -0.417061,-0.165251 -0.125906,0 -0.460342,0.05508 -0.460342,0.220334 v 5.154256 c 0,0.125905 0.220334,0.153447 0.310829,0.153447 0.09049,0 0.310829,-0.02754 0.310829,-0.153447 v -3.781099 l 1.691855,3.769295 c 0.05902,0.12984 0.306894,0.165251 0.4328,0.165251 0.125905,0 0.369847,-0.03148 0.424931,-0.169186 l 1.495127,-3.670931 v 3.623717 c 0,0.161316 0.275418,0.2164 0.401324,0.2164 z"
             id="path23494" />
          <path
             style="color:#000000;-inkscape-font-specification:'Gayathri Bold';fill:#000000;-inkscape-stroke:none"
             d="m 27.840351,14.113527 c -0.12984,0 -0.401324,0.05508 -0.401324,0.220334 v 2.04203 c 0,1.019047 0.751499,1.766611 1.798088,1.766611 0.428865,0 0.885273,-0.145578 1.180364,-0.460342 v 0.236073 c 0,0.165251 0.271483,0.220334 0.397389,0.220334 0.12984,0 0.401323,-0.05508 0.401323,-0.220334 v -3.584372 c 0,-0.16525 -0.271483,-0.220334 -0.401323,-0.220334 -0.125906,0 -0.397389,0.05508 -0.397389,0.220334 v 1.931863 c 0,0.657069 -0.358044,1.432174 -1.13315,1.432174 -0.723956,0 -1.046589,-0.712153 -1.046589,-1.325942 v -2.038095 c 0,-0.16525 -0.271483,-0.220334 -0.397389,-0.220334 z"
             id="path23496" />
          <path
             style="color:#000000;-inkscape-font-specification:'Gayathri Bold';fill:#000000;-inkscape-stroke:none"
             d="m 32.30606,18.142502 c 0.125906,0 0.39739,-0.05508 0.39739,-0.220335 v -5.087368 c 0,-0.16525 -0.271484,-0.220334 -0.39739,-0.220334 -0.12984,0 -0.401323,0.05508 -0.401323,0.220334 v 5.087368 c 0,0.165251 0.271483,0.220335 0.401323,0.220335 z"
             id="path23498" />
          <path
             style="color:#000000;-inkscape-font-specification:'Gayathri Bold';fill:#000000;-inkscape-stroke:none"
             d="m 35.25697,18.142502 c 0.165251,0 0.334437,-0.01574 0.499688,-0.04328 0.110167,-0.01967 0.330501,-0.08656 0.330501,-0.212466 0,-0.17312 -0.283287,-0.228203 -0.413127,-0.228203 -0.137709,0 -0.267549,0.04328 -0.413127,0.04328 -0.401324,0 -0.527229,-0.295091 -0.527229,-0.645266 v -2.502371 h 0.661003 c 0.125906,0 0.401324,-0.05508 0.401324,-0.220335 0,-0.16525 -0.279353,-0.220334 -0.401324,-0.220334 h -0.661003 v -1.278728 c 0,-0.16525 -0.275419,-0.220334 -0.401324,-0.220334 -0.125906,0 -0.401324,0.05508 -0.401324,0.220334 v 1.278728 h -0.440669 c -0.125905,0 -0.397389,0.05508 -0.397389,0.220334 0,0.165251 0.271484,0.220335 0.397389,0.220335 h 0.440669 v 2.502371 c 0,0.77904 0.601986,1.082 1.325942,1.085935 z"
             id="path23500" />
          <path
             style="color:#000000;-inkscape-font-specification:'Gayathri Bold';fill:#000000;-inkscape-stroke:none"
             d="m 36.881937,13.767287 c 0.208531,0 0.401324,-0.161317 0.401324,-0.401324 0,-0.243942 -0.192793,-0.405258 -0.401324,-0.405258 -0.212465,0 -0.405258,0.161316 -0.405258,0.405258 0,0.240007 0.192793,0.401324 0.405258,0.401324 z m 0,4.375215 c 0.125906,0 0.397389,-0.05508 0.397389,-0.220335 v -3.588306 c 0,-0.16525 -0.271483,-0.220334 -0.397389,-0.220334 -0.12984,0 -0.401323,0.05508 -0.401323,0.220334 v 3.588306 c 0,0.165251 0.271483,0.220335 0.401323,0.220335 z"
             id="path23502" />
          <path
             style="color:#000000;-inkscape-font-specification:'Gayathri Bold';fill:#000000;-inkscape-stroke:none"
             d="m 43.728047,18.142502 c 0.12984,0 0.401324,-0.05508 0.401324,-0.220335 v -2.045964 c 0,-1.022981 -0.676742,-1.762676 -1.739069,-1.762676 -0.515426,0 -1.007244,0.180989 -1.337746,0.578378 -0.334436,-0.397389 -0.739695,-0.578378 -1.25512,-0.578378 -0.338371,0 -0.723957,0.09836 -1.026917,0.460342 v -0.240008 c 0,-0.16525 -0.271483,-0.220334 -0.397389,-0.220334 -0.12984,0 -0.401323,0.05508 -0.401323,0.220334 v 3.588306 c 0,0.165251 0.271483,0.220335 0.401323,0.220335 0.125906,0 0.397389,-0.05508 0.397389,-0.220335 v -2.049898 c 0,-0.30296 0.05902,-0.641331 0.220335,-0.904946 0.161316,-0.263614 0.401324,-0.405258 0.716087,-0.405258 0.727891,0 0.948226,0.723957 0.948226,1.314138 v 2.045964 c 0,0.165251 0.271484,0.220335 0.397389,0.220335 0.125905,0 0.401324,-0.05508 0.401324,-0.220335 v -2.049898 c 0,-0.574444 0.212465,-1.310204 0.932487,-1.310204 0.723957,0 0.944291,0.723957 0.944291,1.314138 v 2.045964 c 0,0.165251 0.271484,0.220335 0.397389,0.220335 z"
             id="path23504" />
          <path
             style="color:#000000;-inkscape-font-specification:'Gayathri Bold';fill:#000000;-inkscape-stroke:none"
             d="m 46.840273,18.142502 c 0.503622,0 1.034785,-0.125906 1.455782,-0.401324 0.228203,-0.149513 0.448538,-0.361978 0.554771,-0.613789 0.03148,-0.07476 0.06689,-0.184924 0.06689,-0.267549 0,-0.161316 -0.279353,-0.2164 -0.405258,-0.2164 -0.121971,0 -0.373782,0.05508 -0.38952,0.204596 -0.02754,0.25968 -0.228204,0.47608 -0.440669,0.613789 -0.247877,0.157382 -0.542968,0.243942 -0.838059,0.243942 -0.838058,0 -1.322007,-0.751498 -1.329876,-1.526603 h 3.080749 c 0.169186,0 0.397389,-0.04722 0.397389,-0.251811 0,-1.203971 -0.963963,-1.813826 -2.116785,-1.813826 -1.21184,0 -2.156131,0.786909 -2.156131,2.038095 0,1.235447 0.928552,1.99088 2.12072,1.99088 z m 1.345614,-2.400073 h -2.624342 c 0.141644,-0.6492 0.61379,-1.192167 1.314139,-1.192167 0.743629,0 1.235447,0.480014 1.310203,1.192167 z"
             id="path23506" />
          <path
             style="color:#000000;-inkscape-font-specification:'Gayathri Bold';fill:#000000;-inkscape-stroke:none"
             d="m 53.013576,18.142502 c 0.12984,0 0.401324,-0.05508 0.401324,-0.220335 v -5.087368 c 0,-0.16525 -0.271484,-0.220334 -0.401324,-0.220334 -0.125905,0 -0.397389,0.05508 -0.397389,0.220334 V 14.566 c -0.314764,-0.314764 -0.771171,-0.456408 -1.215775,-0.456408 -1.215774,0 -2.014487,0.83019 -2.014487,2.014488 0,1.184298 0.798713,2.014487 2.014487,2.014487 0.444604,0 0.901011,-0.137709 1.215775,-0.456407 v 0.240007 c 0,0.165251 0.271484,0.220335 0.397389,0.220335 z m -1.613164,-0.444604 c -0.826254,0 -1.215774,-0.869534 -1.215774,-1.573818 0,-0.704284 0.38952,-1.573818 1.215774,-1.573818 0.826255,0 1.215775,0.869534 1.215775,1.573818 0,0.704284 -0.38952,1.573818 -1.215775,1.573818 z"
             id="path23508" />
          <path
             style="color:#000000;-inkscape-font-specification:'Gayathri Bold';fill:#000000;-inkscape-stroke:none"
             d="m 54.508703,13.767287 c 0.208531,0 0.401323,-0.161317 0.401323,-0.401324 0,-0.243942 -0.192792,-0.405258 -0.401323,-0.405258 -0.212466,0 -0.405259,0.161316 -0.405259,0.405258 0,0.240007 0.192793,0.401324 0.405259,0.401324 z m 0,4.375215 c 0.125905,0 0.397389,-0.05508 0.397389,-0.220335 v -3.588306 c 0,-0.16525 -0.271484,-0.220334 -0.397389,-0.220334 -0.12984,0 -0.401324,0.05508 -0.401324,0.220334 v 3.588306 c 0,0.165251 0.271484,0.220335 0.401324,0.220335 z"
             id="path23510" />
          <path
             style="color:#000000;-inkscape-font-specification:'Gayathri Bold';fill:#000000;-inkscape-stroke:none"
             d="m 59.214419,18.142502 c 0.102298,0 0.200661,-0.01574 0.279352,-0.05902 0.07869,-0.03935 0.121971,-0.102298 0.121971,-0.161317 0,-0.05115 -0.03541,-0.106232 -0.110167,-0.149512 -0.228204,-0.12984 -0.255746,-0.409193 -0.255746,-0.641331 v -1.69579 c 0,-0.971833 -1.007243,-1.322007 -1.821694,-1.322007 -0.440669,0 -0.916749,0.102298 -1.282662,0.342305 -0.271484,0.18099 -0.527229,0.472146 -0.527229,0.810517 0,0.165251 0.271483,0.2164 0.393454,0.2164 0.12984,0 0.401324,-0.04721 0.401324,-0.2164 0,-0.220335 0.165251,-0.413127 0.342305,-0.527229 0.196728,-0.125906 0.436735,-0.188858 0.672808,-0.188858 0.546902,0 1.026916,0.287221 1.026916,0.885272 v 0.373782 c -0.153447,0.08263 -0.38952,0.102298 -0.633462,0.102298 -0.2164,0 -0.487883,-0.01574 -0.653134,-0.01574 -0.775106,0 -1.668248,0.149513 -1.668248,1.101673 0,0.841993 0.924619,1.144953 1.64464,1.144953 0.448539,0 1.097739,-0.09443 1.43611,-0.487884 0.05902,0.220335 0.196727,0.334437 0.34624,0.420997 0.07869,0.04721 0.184923,0.06689 0.287222,0.06689 z m -2.069572,-0.436735 c -0.452472,0 -0.845927,-0.220334 -0.845927,-0.708218 0,-0.570509 0.385586,-0.668873 0.869535,-0.668873 0.243942,0 0.491818,0.01967 0.73576,0.01967 0.184923,0 0.369847,-0.0079 0.550836,-0.03934 v 0.377716 c 0,0.653135 -0.720022,1.019047 -1.310204,1.019047 z"
             id="path23512" />
        </g>
        <g
           aria-label="Multimedia "
           id="text10611-3-1"
           style="font-weight:bold;font-size:8.05795px;font-family:Gayathri;-inkscape-font-specification:'Gayathri Bold';letter-spacing:0px;opacity:0.456763;mix-blend-mode:color-dodge;stroke-width:0.302172;filter:url(#filter21161)">
          <path
             style="color:#000000;-inkscape-font-specification:'Gayathri Bold';fill:#000000;-inkscape-stroke:none"
             d="m 25.878275,17.871163 c 0.121971,0 0.39739,-0.05508 0.39739,-0.216401 V 12.56346 c 0,-0.17312 -0.26755,-0.220335 -0.401324,-0.220335 -0.118037,0 -0.361978,0.04328 -0.413127,0.165251 l -1.802022,4.406692 -1.971208,-4.406692 c -0.06295,-0.137709 -0.279353,-0.165251 -0.417062,-0.165251 -0.125905,0 -0.460342,0.05508 -0.460342,0.220335 v 5.154255 c 0,0.125906 0.220335,0.153448 0.310829,0.153448 0.0905,0 0.31083,-0.02754 0.31083,-0.153448 v -3.781098 l 1.691854,3.769295 c 0.05902,0.12984 0.306895,0.165251 0.4328,0.165251 0.125906,0 0.369848,-0.03148 0.424931,-0.169186 l 1.495128,-3.670931 v 3.623716 c 0,0.161317 0.275418,0.216401 0.401323,0.216401 z"
             id="path23515" />
          <path
             style="color:#000000;-inkscape-font-specification:'Gayathri Bold';fill:#000000;-inkscape-stroke:none"
             d="m 27.463898,13.842187 c -0.12984,0 -0.401324,0.05508 -0.401324,0.220335 v 2.042029 c 0,1.019048 0.751498,1.766612 1.798087,1.766612 0.428866,0 0.885273,-0.145579 1.180364,-0.460342 v 0.236072 c 0,0.165251 0.271484,0.220335 0.397389,0.220335 0.12984,0 0.401324,-0.05508 0.401324,-0.220335 v -3.584371 c 0,-0.165251 -0.271484,-0.220335 -0.401324,-0.220335 -0.125905,0 -0.397389,0.05508 -0.397389,0.220335 v 1.931862 c 0,0.657069 -0.358043,1.432175 -1.133149,1.432175 -0.723956,0 -1.046589,-0.712153 -1.046589,-1.325942 v -2.038095 c 0,-0.165251 -0.271484,-0.220335 -0.397389,-0.220335 z"
             id="path23517" />
          <path
             style="color:#000000;-inkscape-font-specification:'Gayathri Bold';fill:#000000;-inkscape-stroke:none"
             d="m 31.929607,17.871163 c 0.125906,0 0.397389,-0.05508 0.397389,-0.220335 V 12.56346 c 0,-0.165251 -0.271483,-0.220335 -0.397389,-0.220335 -0.12984,0 -0.401324,0.05508 -0.401324,0.220335 v 5.087368 c 0,0.165251 0.271484,0.220335 0.401324,0.220335 z"
             id="path23519" />
          <path
             style="color:#000000;-inkscape-font-specification:'Gayathri Bold';fill:#000000;-inkscape-stroke:none"
             d="m 34.880517,17.871163 c 0.165251,0 0.334436,-0.01574 0.499687,-0.04328 0.110167,-0.01967 0.330502,-0.08656 0.330502,-0.212465 0,-0.17312 -0.283287,-0.228204 -0.413127,-0.228204 -0.137709,0 -0.267549,0.04328 -0.413128,0.04328 -0.401323,0 -0.527229,-0.295091 -0.527229,-0.645265 v -2.502371 h 0.661004 c 0.125905,0 0.401324,-0.05508 0.401324,-0.220335 0,-0.165251 -0.279353,-0.220335 -0.401324,-0.220335 H 34.357222 V 12.56346 c 0,-0.165251 -0.275418,-0.220335 -0.401323,-0.220335 -0.125906,0 -0.401324,0.05508 -0.401324,0.220335 v 1.278727 h -0.440669 c -0.125906,0 -0.397389,0.05508 -0.397389,0.220335 0,0.165251 0.271483,0.220335 0.397389,0.220335 h 0.440669 v 2.502371 c 0,0.77904 0.601985,1.082 1.325942,1.085935 z"
             id="path23521" />
          <path
             style="color:#000000;-inkscape-font-specification:'Gayathri Bold';fill:#000000;-inkscape-stroke:none"
             d="m 36.505484,13.495947 c 0.208531,0 0.401324,-0.161316 0.401324,-0.401323 0,-0.243942 -0.192793,-0.405258 -0.401324,-0.405258 -0.212466,0 -0.405258,0.161316 -0.405258,0.405258 0,0.240007 0.192792,0.401323 0.405258,0.401323 z m 0,4.375216 c 0.125905,0 0.397389,-0.05508 0.397389,-0.220335 v -3.588306 c 0,-0.165251 -0.271484,-0.220335 -0.397389,-0.220335 -0.12984,0 -0.401324,0.05508 -0.401324,0.220335 v 3.588306 c 0,0.165251 0.271484,0.220335 0.401324,0.220335 z"
             id="path23523" />
          <path
             style="color:#000000;-inkscape-font-specification:'Gayathri Bold';fill:#000000;-inkscape-stroke:none"
             d="m 43.351594,17.871163 c 0.12984,0 0.401324,-0.05508 0.401324,-0.220335 v -2.045964 c 0,-1.022982 -0.676742,-1.762677 -1.73907,-1.762677 -0.515425,0 -1.007244,0.18099 -1.337745,0.578379 -0.334437,-0.397389 -0.739695,-0.578379 -1.255121,-0.578379 -0.33837,0 -0.723956,0.09836 -1.026916,0.460342 v -0.240007 c 0,-0.165251 -0.271484,-0.220335 -0.397389,-0.220335 -0.12984,0 -0.401324,0.05508 -0.401324,0.220335 v 3.588306 c 0,0.165251 0.271484,0.220335 0.401324,0.220335 0.125905,0 0.397389,-0.05508 0.397389,-0.220335 V 15.60093 c 0,-0.302961 0.05902,-0.641331 0.220335,-0.904946 0.161316,-0.263615 0.401323,-0.405258 0.716087,-0.405258 0.727891,0 0.948225,0.723956 0.948225,1.314138 v 2.045964 c 0,0.165251 0.271484,0.220335 0.39739,0.220335 0.125905,0 0.401323,-0.05508 0.401323,-0.220335 V 15.60093 c 0,-0.574444 0.212466,-1.310204 0.932488,-1.310204 0.723956,0 0.944291,0.723956 0.944291,1.314138 v 2.045964 c 0,0.165251 0.271483,0.220335 0.397389,0.220335 z"
             id="path23525" />
          <path
             style="color:#000000;-inkscape-font-specification:'Gayathri Bold';fill:#000000;-inkscape-stroke:none"
             d="m 46.463819,17.871163 c 0.503622,0 1.034786,-0.125906 1.455782,-0.401324 0.228204,-0.149513 0.448539,-0.361978 0.554771,-0.613789 0.03148,-0.07476 0.06689,-0.184924 0.06689,-0.267549 0,-0.161317 -0.279353,-0.2164 -0.405259,-0.2164 -0.121971,0 -0.373781,0.05508 -0.38952,0.204596 -0.02754,0.25968 -0.228203,0.47608 -0.440669,0.613789 -0.247876,0.157382 -0.542967,0.243942 -0.838058,0.243942 -0.838058,0 -1.322007,-0.751498 -1.329877,-1.526604 h 3.08075 c 0.169185,0 0.397389,-0.04721 0.397389,-0.251811 0,-1.203971 -0.963964,-1.813826 -2.116786,-1.813826 -1.21184,0 -2.156131,0.78691 -2.156131,2.038095 0,1.235448 0.928553,1.990881 2.12072,1.990881 z m 1.345615,-2.400074 h -2.624342 c 0.141644,-0.6492 0.613789,-1.192167 1.314138,-1.192167 0.743629,0 1.235448,0.480015 1.310204,1.192167 z"
             id="path23527" />
          <path
             style="color:#000000;-inkscape-font-specification:'Gayathri Bold';fill:#000000;-inkscape-stroke:none"
             d="m 52.637123,17.871163 c 0.12984,0 0.401323,-0.05508 0.401323,-0.220335 V 12.56346 c 0,-0.165251 -0.271483,-0.220335 -0.401323,-0.220335 -0.125906,0 -0.397389,0.05508 -0.397389,0.220335 v 1.7312 c -0.314764,-0.314763 -0.771171,-0.456407 -1.215775,-0.456407 -1.215775,0 -2.014488,0.830189 -2.014488,2.014487 0,1.184299 0.798713,2.014488 2.014488,2.014488 0.444604,0 0.901011,-0.137709 1.215775,-0.456407 v 0.240007 c 0,0.165251 0.271483,0.220335 0.397389,0.220335 z m -1.613164,-0.444604 c -0.826255,0 -1.215775,-0.869535 -1.215775,-1.573819 0,-0.704283 0.38952,-1.573818 1.215775,-1.573818 0.826255,0 1.215775,0.869535 1.215775,1.573818 0,0.704284 -0.38952,1.573819 -1.215775,1.573819 z"
             id="path23529" />
          <path
             style="color:#000000;-inkscape-font-specification:'Gayathri Bold';fill:#000000;-inkscape-stroke:none"
             d="m 54.132249,13.495947 c 0.208531,0 0.401324,-0.161316 0.401324,-0.401323 0,-0.243942 -0.192793,-0.405258 -0.401324,-0.405258 -0.212465,0 -0.405258,0.161316 -0.405258,0.405258 0,0.240007 0.192793,0.401323 0.405258,0.401323 z m 0,4.375216 c 0.125906,0 0.397389,-0.05508 0.397389,-0.220335 v -3.588306 c 0,-0.165251 -0.271483,-0.220335 -0.397389,-0.220335 -0.12984,0 -0.401323,0.05508 -0.401323,0.220335 v 3.588306 c 0,0.165251 0.271483,0.220335 0.401323,0.220335 z"
             id="path23531" />
          <path
             style="color:#000000;-inkscape-font-specification:'Gayathri Bold';fill:#000000;-inkscape-stroke:none"
             d="m 58.837965,17.871163 c 0.102298,0 0.200662,-0.01574 0.279353,-0.05902 0.07869,-0.03935 0.121971,-0.102298 0.121971,-0.161316 0,-0.05115 -0.03541,-0.106233 -0.110167,-0.149513 -0.228204,-0.12984 -0.255746,-0.409193 -0.255746,-0.641331 v -1.695789 c 0,-0.971833 -1.007244,-1.322008 -1.821695,-1.322008 -0.440669,0 -0.916749,0.102299 -1.282662,0.342306 -0.271483,0.180989 -0.527229,0.472145 -0.527229,0.810516 0,0.165251 0.271484,0.2164 0.393455,0.2164 0.12984,0 0.401323,-0.04721 0.401323,-0.2164 0,-0.220334 0.165251,-0.413127 0.342306,-0.527229 0.196727,-0.125905 0.436735,-0.188858 0.672807,-0.188858 0.546902,0 1.026917,0.287222 1.026917,0.885273 v 0.373782 c -0.153447,0.08263 -0.38952,0.102298 -0.633462,0.102298 -0.2164,0 -0.487884,-0.01574 -0.653135,-0.01574 -0.775105,0 -1.668247,0.149513 -1.668247,1.101673 0,0.841992 0.924618,1.144953 1.64464,1.144953 0.448538,0 1.097738,-0.09443 1.436109,-0.487884 0.05902,0.220334 0.196728,0.334436 0.34624,0.420996 0.07869,0.04721 0.184924,0.06689 0.287222,0.06689 z m -2.069571,-0.436735 c -0.452473,0 -0.845927,-0.220335 -0.845927,-0.708218 0,-0.57051 0.385585,-0.668873 0.869534,-0.668873 0.243942,0 0.491819,0.01967 0.73576,0.01967 0.184924,0 0.369848,-0.0079 0.550837,-0.03935 v 0.377717 c 0,0.653134 -0.720022,1.019047 -1.310204,1.019047 z"
             id="path23533" />
        </g>
      </g>
    </g>
  </g>
</svg>
